<svg xmlns="http://www.w3.org/2000/svg" viewBox="0 0 2890.54 3972.91"><defs><style>.cls-1{fill:#050006;}.cls-2{font-size:48px;}.cls-13,.cls-2,.cls-3,.cls-4{fill:#fafafa;}.cls-2,.cls-4{font-family:Helvetica-Bold, Helvetica;font-weight:700;}.cls-10,.cls-3,.cls-4{font-size:36px;}.cls-10,.cls-3{font-family:Helvetica;}.cls-5{letter-spacing:-0.05em;}.cls-11,.cls-12,.cls-6,.cls-9{fill:none;stroke:#fafafa;stroke-miterlimit:10;}.cls-7{letter-spacing:-0.02em;}.cls-8{letter-spacing:-0.04em;}.cls-9{stroke-dasharray:11.99 6;}.cls-10{fill:#815899;}.cls-11{stroke-dasharray:11.92 5.96;}.cls-12{stroke-dasharray:11.97 5.99;}</style></defs><g id="Capa_2" data-name="Capa 2"><g id="Capa_1-2" data-name="Capa 1"><rect class="cls-1" width="2890.54" height="3972.91"/><text class="cls-2" transform="translate(1190.37 343.94)">Splash Screen</text><text class="cls-3" transform="translate(1047.81 403.49)">User sees a welcome screen with logo.</text><text class="cls-4" transform="translate(1050.12 459.42)">User sights:</text><text class="cls-3" transform="translate(1050.84 510.45)">App Logo |<tspan class="cls-5" x="173.5" y="0"> </tspan><tspan x="181.53" y="0">App Description | Illustration</tspan><tspan x="0" y="43.2">Sign In / Sign Up Elements</tspan></text><text class="cls-4" transform="translate(1051 606.36)">User actions:</text><text class="cls-3" transform="translate(1051.73 657.4)">Sign In | Sign Up (Google<tspan class="cls-5" x="407.58" y="0"> </tspan><tspan x="415.62" y="0">Auth)</tspan></text><rect class="cls-6" x="1300" y="120.44" width="133.87" height="133.87" rx="38.35"/><text class="cls-2" transform="translate(724.89 1080.41)">Sign Up Screen</text><text class="cls-3" transform="translate(582.33 1139.97)">User authorizes sign up using Google</text><rect class="cls-6" x="834.52" y="856.91" width="133.87" height="133.87" rx="38.35"/><text class="cls-2" transform="translate(1629.12 1072.76)">Sign In Screen</text><text class="cls-3" transform="translate(1486.57 1132.31)">If user has already authorized Google,<tspan x="0" y="43.2">user logs in using Google credentials.</tspan></text><rect class="cls-6" x="1738.75" y="849.25" width="133.87" height="133.87" rx="38.35"/><text class="cls-2" transform="translate(1171.51 1895.01)">Popular Books</text><text class="cls-3" transform="translate(1035.95 1957.57)">User sees the home screen showing<tspan x="0" y="43.2">the most rented books.</tspan></text><text class="cls-4" transform="translate(1038.26 2043.49)">User sights:</text><rect class="cls-6" x="1288.14" y="1674.51" width="133.87" height="133.87" rx="38.35"/><text class="cls-3" transform="translate(1038.98 2089.71)">Book Covers |<tspan class="cls-7" x="225.44" y="0"> </tspan><tspan class="cls-8" x="234.81" y="0">T</tspan><tspan x="255.48" y="0">itle | Search | Menu </tspan></text><text class="cls-4" transform="translate(1040.2 2134.64)">User actions:</text><text class="cls-3" transform="translate(1040.92 2180.86)">Slide Books | Select | Search Books<tspan x="0" y="43.2">See Menu</tspan></text><line class="cls-6" x1="1366.93" y1="723.21" x2="1366.93" y2="758.27"/><polyline class="cls-6" points="1805.69 790.63 1805.69 758.27 901.45 758.27 901.45 790.63"/><polyline class="cls-6" points="914.82 1233.33 914.82 1265.69 1819.05 1265.69 1819.05 1233.33"/><rect class="cls-9" x="1098.41" y="1335.52" width="508.61" height="81.89" rx="38.35"/><text class="cls-3" transform="translate(1128.18 1386.44)">User logs using Google<tspan class="cls-5" x="374.2" y="0"> </tspan><tspan x="382.24" y="0">Auth</tspan></text><line class="cls-6" x1="1353.57" y1="1265.69" x2="1353.57" y2="1335.52"/><line class="cls-6" x1="1070.25" y1="1376.46" x2="914.82" y2="1376.46"/><line class="cls-6" x1="709.82" y1="1376.46" x2="463.21" y2="1376.46"/><text class="cls-10" transform="translate(740.33 1385.18)">new user</text><line class="cls-6" x1="1353.57" y1="1417.41" x2="1353.57" y2="1513.42"/><line class="cls-6" x1="1355.08" y1="1578.51" x2="1355.08" y2="1654.62"/><text class="cls-10" transform="translate(1245.14 1557.93)">returning user</text><text class="cls-2" transform="translate(208.25 1530.91)">Profile Set Up</text><text class="cls-3" transform="translate(123.69 1593.46)">User creates profile based in <tspan x="0" y="43.2">provided questions.</tspan></text><text class="cls-4" transform="translate(125.99 1679.39)">User sights:</text><rect class="cls-6" x="305.88" y="1310.41" width="133.87" height="133.87" rx="38.35"/><text class="cls-3" transform="translate(126.71 1725.61)">Form with multiple questions<tspan x="0" y="43.2">about book preferences.</tspan></text><text class="cls-4" transform="translate(127.79 1814.04)">User actions:</text><text class="cls-3" transform="translate(128.51 1860.26)">Choose checkbox list of<tspan x="0" y="43.2">preferences.</tspan><tspan x="0" y="86.4">Send adjustments.</tspan></text><line class="cls-6" x1="2243.95" y1="1741.45" x2="1955.39" y2="1741.45"/><text class="cls-2" transform="translate(2223.48 1894.34)">Book Details</text><text class="cls-3" transform="translate(2070.92 1956.89)">User can see the book in detail before<tspan x="0" y="43.2">dismissing or buying.</tspan></text><text class="cls-4" transform="translate(2073.23 2052.81)">User sights:</text><rect class="cls-6" x="2303.11" y="1673.83" width="133.87" height="133.87" rx="38.35"/><text class="cls-3" transform="translate(2073.95 2099.03)">Book Cover |<tspan class="cls-7" x="207.44" y="0"> </tspan><tspan class="cls-8" x="216.81" y="0">T</tspan><tspan x="237.48" y="0">itle | Characteristics</tspan><tspan x="0" y="43.2">Location | Rent Button </tspan></text><text class="cls-4" transform="translate(2073.59 2198.43)">User actions:</text><text class="cls-3" transform="translate(2074.31 2244.65)">Rent | Go Back | See Menu</text><polyline class="cls-6" points="325.35 2010.57 325.35 2042.93 774.95 2042.93"/><polyline class="cls-6" points="1265.68 1733.8 774.95 1733.8 774.95 2042.93"/><rect class="cls-11" x="1459.47" y="2291.24" width="281.89" height="81.89" rx="38.35"/><text class="cls-3" transform="translate(1490.24 2342.16)">Selects Book</text><rect class="cls-12" x="181.25" y="2088.99" width="328.2" height="81.89" rx="38.35"/><text class="cls-3" transform="translate(219.02 2139.91)">Publish a Book</text><polyline class="cls-6" points="1333.88 2258.02 1333.88 2342.91 1434.84 2342.91"/><line class="cls-6" x1="455.34" y1="2836.13" x2="455.34" y2="2922.66"/><text class="cls-2" transform="translate(260.34 3166.08)">Published Books</text><text class="cls-3" transform="translate(131.78 3228.63)">User sees a list of their published books.</text><rect class="cls-6" x="383.97" y="2945.58" width="133.87" height="133.87" rx="38.35"/><polygon class="cls-13" points="1266.79 1733.8 1241.79 1719.36 1241.79 1748.23 1266.79 1733.8"/><polygon class="cls-13" points="2263.99 1741.45 2238.99 1727.01 2238.99 1755.88 2263.99 1741.45"/><polygon class="cls-13" points="901.45 815.63 915.89 790.63 887.02 790.63 901.45 815.63"/><polygon class="cls-13" points="1804.62 815.63 1819.05 790.63 1790.18 790.63 1804.62 815.63"/><polygon class="cls-13" points="1819.05 1254.14 1833.49 1229.14 1804.62 1229.14 1819.05 1254.14"/><polygon class="cls-13" points="914.82 1245.81 929.25 1220.81 900.38 1220.81 914.82 1245.81"/><polygon class="cls-13" points="463.21 1377.34 488.21 1391.77 488.21 1362.91 463.21 1377.34"/><text class="cls-4" transform="translate(2066.59 2760.51)">User sights:</text><rect class="cls-6" x="2296.48" y="2381.53" width="133.87" height="133.87" rx="38.35"/><text class="cls-3" transform="translate(2067.32 2806.73)">Modality of Rental | Book to Rent<tspan x="0" y="43.2">Payment Method</tspan></text><text class="cls-4" transform="translate(2066.95 2896.12)">User actions:</text><text class="cls-3" transform="translate(2067.68 2942.34)">Choose Payment | Choose Date<tspan x="0" y="43.2">| Go Back</tspan></text><line class="cls-6" x1="2370.04" y1="2351.1" x2="2370.04" y2="2281.5"/><polygon class="cls-13" points="2370.05 2352.07 2384.48 2327.07 2355.61 2327.07 2370.05 2352.07"/><polyline class="cls-6" points="1793.56 2342.91 1955.39 2342.91 1955.39 1741.45"/><polygon class="cls-13" points="325.35 1985.57 310.92 2010.57 339.79 2010.57 325.35 1985.57"/><text class="cls-4" transform="translate(134.27 3279.37)">User sights:</text><text class="cls-3" transform="translate(134.99 3325.58)">Book Cover | Charact. | State | Search</text><text class="cls-4" transform="translate(134.63 3374.98)">User actions:</text><text class="cls-3" transform="translate(135.35 3421.2)">See More | Search | Go to Profile <tspan x="0" y="43.2">Go Back </tspan></text><text class="cls-2" transform="translate(182.88 2483.4)">Publish Book</text><text class="cls-3" transform="translate(132.33 2545.95)">User can publish a book<tspan x="0" y="43.2">for others to rent.</tspan></text><rect class="cls-6" x="267.51" y="2262.9" width="133.87" height="133.87" rx="38.35"/><text class="cls-4" transform="translate(134.81 2636.68)">User sights:</text><text class="cls-3" transform="translate(135.53 2682.9)"><tspan class="cls-5">A</tspan><tspan x="22.04" y="0" xml:space="preserve"> form to fill with provided questions.</tspan></text><text class="cls-4" transform="translate(135.17 2732.3)">User actions:</text><text class="cls-3" transform="translate(135.89 2778.52)">Go Back | Fill the Form | Publish</text><line class="cls-6" x1="325.35" y1="2077.12" x2="325.35" y2="2042.93"/><line class="cls-6" x1="325.35" y1="2251.04" x2="325.35" y2="2177.27"/><polygon class="cls-13" points="325.35 2251.04 339.79 2226.04 310.92 2226.04 325.35 2251.04"/><text class="cls-2" transform="translate(1200.08 2675.4)">Rented Books</text><text class="cls-3" transform="translate(1064.52 2737.95)">User can see the rented books and <tspan x="0" y="43.2">descriptions.</tspan></text><text class="cls-4" transform="translate(1066.83 2833.88)">User sights:</text><rect class="cls-6" x="1296.71" y="2454.9" width="133.87" height="133.87" rx="38.35"/><text class="cls-3" transform="translate(1067.55 2880.1)">Book Cover | Charact. | State | Search</text><text class="cls-4" transform="translate(1067.19 2929.49)">User actions:</text><text class="cls-3" transform="translate(1067.91 2975.71)">See More | Search | Go to Profile <tspan x="0" y="43.2">Go Back </tspan></text><text class="cls-2" transform="translate(2228.93 2605.41)">Rent a Book</text><text class="cls-3" transform="translate(2064.37 2667.96)">User can rent the selected book <tspan x="0" y="43.2">previously viewed in detail</tspan></text><polyline class="cls-6" points="1793.56 2807.82 1955.39 2807.48 1955.39 3498.78 2036.59 3498.78"/><polygon class="cls-13" points="1789.03 2807.48 1814.03 2821.91 1814.03 2793.05 1789.03 2807.48"/><polygon class="cls-13" points="454.86 2929.65 469.29 2904.65 440.43 2904.65 454.86 2929.65"/><text class="cls-4" transform="translate(2079.69 3471.39)">User sights:</text><rect class="cls-6" x="2309.58" y="3092.41" width="133.87" height="133.87" rx="38.35"/><text class="cls-3" transform="translate(2080.41 3517.61)">Modality of Rental | Rented Book<tspan x="0" y="43.2">Payment Method | Date </tspan></text><text class="cls-4" transform="translate(2080.05 3607.01)">User actions:</text><text class="cls-3" transform="translate(2080.78 3653.23)">Go Back | Rent Other</text><line class="cls-6" x1="2383.14" y1="3061.99" x2="2383.14" y2="2992.38"/><polygon class="cls-13" points="2383.14 3062.96 2397.58 3037.96 2368.71 3037.96 2383.14 3062.96"/><text class="cls-2" transform="translate(2213.03 3316.29)">Invoice Screen</text><text class="cls-3" transform="translate(2077.47 3378.85)">User can see the summary of the<tspan x="0" y="43.2">chosen operation.</tspan></text><polyline class="cls-6" points="989.46 2088.99 892.32 2088.99 892.32 3498.78 1955.39 3498.78"/><polygon class="cls-13" points="993.15 2088.99 968.15 2074.55 968.15 2103.42 993.15 2088.99"/></g></g></svg>