<svg xmlns="http://www.w3.org/2000/svg" viewBox="0 0 610.12 183.8"><defs><style>.cls-1{fill:#705291;}.cls-2{fill:#d3d3d3;}</style></defs><g id="Capa_2" data-name="Capa 2"><g id="Capa_1-2" data-name="Capa 1"><path class="cls-1" d="M362.2,171.86l1.92-8.64h-.24a26.62,26.62,0,0,1-21.72,10.2q-18.12,0-18.12-16.56a21.61,21.61,0,0,1,.18-2.46c.12-1,.28-2,.48-3.06s.4-2,.6-2.94.38-1.65.54-2.22l7.68-36.36h17L343,146.18a12.74,12.74,0,0,0-.42,1.74q-.18,1-.36,2.1a20.18,20.18,0,0,0-.24,2.1q-.06,1-.06,1.62a5.37,5.37,0,0,0,2.58,4.56,9.56,9.56,0,0,0,5.58,1.8,14.59,14.59,0,0,0,6.78-1.5,16.56,16.56,0,0,0,5-3.9,21.39,21.39,0,0,0,3.48-5.52,33.84,33.84,0,0,0,2.1-6.36l7-33h17l-13,62Z"/><path class="cls-1" d="M431.38,121.76c-1.48-1.47-3.9-2.22-7.26-2.22a17.85,17.85,0,0,0-7.5,1.38,4.84,4.84,0,0,0-2.94,4.74,4.36,4.36,0,0,0,1.74,3.48,18.41,18.41,0,0,0,6.06,2.76l8.52,2.76a44.71,44.71,0,0,1,6.42,2.52,21,21,0,0,1,5.16,3.54,15.22,15.22,0,0,1,3.48,5,16.68,16.68,0,0,1,1.26,6.72,17.73,17.73,0,0,1-2.58,9.78,20.31,20.31,0,0,1-6.78,6.54,29.92,29.92,0,0,1-9.48,3.6,53.16,53.16,0,0,1-10.68,1.08,45.9,45.9,0,0,1-9.24-1,27,27,0,0,1-8.46-3.18,18.39,18.39,0,0,1-6.18-5.88,16.39,16.39,0,0,1-2.4-9.18V151.7h15.72v2a6.35,6.35,0,0,0,1.08,3.72,8.65,8.65,0,0,0,2.82,2.58,14.61,14.61,0,0,0,4,1.56,18.48,18.48,0,0,0,4.38.54,20.8,20.8,0,0,0,3.84-.36,10.94,10.94,0,0,0,3.48-1.26,7.6,7.6,0,0,0,2.52-2.28,6,6,0,0,0,1-3.54c0-2.16-.56-3.67-1.68-4.56a15.57,15.57,0,0,0-4.44-2.28l-13.08-4.2a46.89,46.89,0,0,1-5.7-2.28,14.6,14.6,0,0,1-4.2-3,11.87,11.87,0,0,1-2.64-4.32,18.71,18.71,0,0,1-.9-6.24,15.85,15.85,0,0,1,2.58-9.24,20.33,20.33,0,0,1,6.66-6.06,30.39,30.39,0,0,1,8.94-3.36,46,46,0,0,1,9.3-1,55.89,55.89,0,0,1,9.72.84,22.93,22.93,0,0,1,8.22,3.06,15.76,15.76,0,0,1,5.58,6.06,20.06,20.06,0,0,1,1.92,9.84H433.72A8.77,8.77,0,0,0,431.38,121.76Z"/><path class="cls-1" d="M496.36,109.82l-2.64,11.4H481.6l-6.36,30.84q-.24,1-.36,1.74a8.58,8.58,0,0,0-.12,1.14,5,5,0,0,0,.54,2.58,3.73,3.73,0,0,0,1.38,1.38,4.07,4.07,0,0,0,1.86.54c.68.05,1.34.06,2,.06a51.33,51.33,0,0,0,6.12-.36l-2.88,13.08q-2.64.24-5.28.42t-5.4.18a32.81,32.81,0,0,1-5.94-.54,15.77,15.77,0,0,1-5.28-1.92,10.08,10.08,0,0,1-3.72-3.78,11.64,11.64,0,0,1-1.26-6.24,17.46,17.46,0,0,1,.24-2.7c.16-1,.36-2,.6-3.18l7-33.24H453.52l2.64-11.4h10.92L470.92,91h17l-3.84,18.84Z"/><path class="cls-1" d="M509.68,146.06v2.52a11.83,11.83,0,0,0,3.36,8.76q3.36,3.36,10.32,3.36a12,12,0,0,0,4.5-.78,12.82,12.82,0,0,0,3.48-2,14.11,14.11,0,0,0,2.64-2.76c.76-1,1.46-2,2.1-3h17a43.3,43.3,0,0,1-4.8,9.24,26.78,26.78,0,0,1-6.6,6.66,27.26,27.26,0,0,1-8.94,4A47.42,47.42,0,0,1,521,173.42a36.1,36.1,0,0,1-11.34-1.68,22.65,22.65,0,0,1-8.7-5.1,23.15,23.15,0,0,1-5.58-8.46,32,32,0,0,1-2-11.76,43.38,43.38,0,0,1,2.4-14.34,39.88,39.88,0,0,1,6.78-12.24,32.77,32.77,0,0,1,10.74-8.52,31.62,31.62,0,0,1,14.28-3.18,39.57,39.57,0,0,1,11.82,1.68,24.35,24.35,0,0,1,9.12,5.1,23.21,23.21,0,0,1,5.88,8.52,30.94,30.94,0,0,1,2.1,11.82,53.09,53.09,0,0,1-1,9.72H509.8A5.73,5.73,0,0,0,509.68,146.06Zm29.94-16.62a11.93,11.93,0,0,0-1.62-4.26,8.56,8.56,0,0,0-3.48-3.06,13.62,13.62,0,0,0-6-1.14,17.37,17.37,0,0,0-6.36,1.08,16,16,0,0,0-4.8,2.88,16.58,16.58,0,0,0-3.42,4.2,33,33,0,0,0-2.34,5H540A26.78,26.78,0,0,0,539.62,129.44Z"/><path class="cls-1" d="M585.76,109.82,583.24,121l.24.24a20.45,20.45,0,0,1,8.7-9.78,25.34,25.34,0,0,1,12.66-3.3,39,39,0,0,1,5.28.36l-3.48,16.56-3.6-.72a18.32,18.32,0,0,0-3.6-.36,18.79,18.79,0,0,0-8.34,1.68,17.07,17.07,0,0,0-5.76,4.56,23.49,23.49,0,0,0-3.72,6.54,52.73,52.73,0,0,0-2.22,7.62l-5.76,27.48H556.72l12.84-62Z"/><g id="o1c10z"><path class="cls-2" d="M301.6,133.33v5.75H19.33v7.24h280c-.46,4.84-2.59,6.35-7.14,6.34q-132.3-.19-264.6-.11H19.37v7H288.12c-4.71,4.61-10.46,6-16.51,6q-103.35.08-206.69,0c-18,0-35.95.23-53.92-.13C5,165.28.58,169.28.42,174.79c-.15,5.18,4.27,8.85,10.5,8.85q131.06,0,262.11,0c25.48,0,45.43-19.28,47-44.77,1.53-24.82-16.32-46-41.58-49.39-2.45-.33-4.9-.61-6.7-.83,1.88-7.39,4.67-14.63,5.43-22.07,1.9-18.43-2.44-35-17.48-47.36a27.63,27.63,0,0,0-17.93-6.39q-94.35,0-188.72,0c-4.8,0-8.38,1.42-10.1,6.29-1.51,4.27,0,7.61,3.25,10.1a9.57,9.57,0,0,0,5.49,1.64c31.11.08,62.23,0,93.34,0,31.45,0,62.9-.08,94.34.16,3.55,0,7.09,1.91,10.63,2.94l-.3,1.7H58.46v8c2,0,4,0,5.93,0,24-.11,47.9-.33,71.85-.32,38.59,0,77.17.27,115.76.22,4.07,0,5.15,1.89,5.61,5.78H58.35v7.35H258.8v6H58.46v7.69h199c.19,4.79-1.87,6-6,6-34.45,0-68.89.28-103.34.3-27.95,0-55.9-.24-83.86-.37-1.81,0-3.63,0-5.74,0v7.33H250.91c-2.94,4.14-6.42,5.31-10.56,5.3-13.65,0-27.29,0-40.94,0H13.19c-.66,0-1.33,0-2,0C4.93,89,.42,92.89.37,98.19s4.36,9.31,10.78,9.32c20,0,39.94,0,59.91,0q99.6,0,199.19,0c6.16,0,15.81.57,20.88,5H19.38v7.26H26.2q132.55,0,265.11-.08c4.21,0,7.14.72,7.79,5.9H19.32v7.81Z"/></g><g id="o1c10z-2" data-name="o1c10z"><path class="cls-1" d="M288,159.37c-4.71,4.61-10.27,6.25-16.33,6.26q-103.5.08-207,0c-18,0-36,.23-54-.14C4.6,165.39.21,169.39.05,174.9c-.16,5.2,4.27,8.86,10.51,8.87q131.25,0,262.5,0c25.52,0,45.49-19.31,47.08-44.84C321.67,114,303.8,92.81,278.5,89.44c-2.45-.33-4.91-.61-6.71-.83,1.88-7.4,4.67-14.65,5.44-22.1,1.9-18.46-2.45-35.09-17.51-47.44a27.68,27.68,0,0,0-18-6.39q-94.5,0-189,0c-4.81,0-8.4,1.42-10.12,6.3-1.51,4.28,0,7.62,3.26,10.11a9.49,9.49,0,0,0,5.49,1.64c31.16.09,62.32,0,93.48,0,26.33,0,66,.44,87.07.59,12.57.09,23.66,8.81,26.1,21.14,1.71,8.64.1,19-6.58,30.1a15.59,15.59,0,0,1-1.71,2.32,10.44,10.44,0,0,1-7.27,3.7,25.79,25.79,0,0,1-3.73.26c-13.14,0-26.29,0-39.43,0H12.84c-.67,0-1.33,0-2,0C4.56,89,.05,92.89,0,98.19s4.36,9.33,10.8,9.34c20,0,40,0,60,0q99.75,0,199.49,0c6.16,0,11.07.72,17.69,4.86C305,124.37,300,150.37,288,159.37Z"/></g><path class="cls-1" d="M286.82,45.66a37.09,37.09,0,0,1,7.08-12.3A33.21,33.21,0,0,1,305.11,25,35,35,0,0,1,320,22a40.16,40.16,0,0,1,11.7,1.62,25.4,25.4,0,0,1,9.17,4.86,21.56,21.56,0,0,1,5.94,8.16,29.51,29.51,0,0,1,2.1,11.64,46.65,46.65,0,0,1-2.46,15.3A36.47,36.47,0,0,1,339.3,76,33.13,33.13,0,0,1,328,84.24a36.55,36.55,0,0,1-15.17,3q-13,0-20.69-6.66t-7.74-20A44.85,44.85,0,0,1,286.82,45.66Zm15.35,20.22a13.1,13.1,0,0,0,2.34,4.44,11.52,11.52,0,0,0,3.84,3.06,11.66,11.66,0,0,0,5.28,1.14,13.23,13.23,0,0,0,8.21-2.58,21,21,0,0,0,5.64-6.48,31.83,31.83,0,0,0,3.3-8.46,37.09,37.09,0,0,0,1.08-8.52q0-6.24-2.82-10t-9.65-3.72a13.07,13.07,0,0,0-8.1,2.58,20.57,20.57,0,0,0-5.58,6.42,32.28,32.28,0,0,0-3.24,8.34,36.33,36.33,0,0,0-1.08,8.46A17.75,17.75,0,0,0,302.17,65.88Z"/><path class="cls-1" d="M355,45.66A36.89,36.89,0,0,1,362,33.36,33.35,33.35,0,0,1,373.24,25,34.89,34.89,0,0,1,388.11,22a40.16,40.16,0,0,1,11.7,1.62A25.57,25.57,0,0,1,409,28.44a21.56,21.56,0,0,1,5.94,8.16A29.51,29.51,0,0,1,417,48.24a46.65,46.65,0,0,1-2.46,15.3A36.33,36.33,0,0,1,407.42,76a33.19,33.19,0,0,1-11.33,8.28,36.59,36.59,0,0,1-15.18,3q-12.95,0-20.69-6.66t-7.73-20A44.85,44.85,0,0,1,355,45.66ZM370.3,65.88a13.1,13.1,0,0,0,2.34,4.44,11.3,11.3,0,0,0,9.11,4.2A13.26,13.26,0,0,0,390,71.94a21,21,0,0,0,5.64-6.48,31.83,31.83,0,0,0,3.3-8.46A37,37,0,0,0,400,48.48q0-6.24-2.81-10t-9.66-3.72a13,13,0,0,0-8.09,2.58,20.57,20.57,0,0,0-5.58,6.42,32.28,32.28,0,0,0-3.24,8.34,36.33,36.33,0,0,0-1.08,8.46A17.75,17.75,0,0,0,370.3,65.88Z"/><path class="cls-1" d="M453,0l-9.84,46.56.24.24,24.47-23.16h21l-29,26,28,41.24h-17l-22-32.24-9.69,6.86L435,85.68H418.1L436,0Z"/></g></g></svg>