<svg xmlns="http://www.w3.org/2000/svg" viewBox="0 0 109.75 72.02"><defs><style>.cls-1{opacity:0.9;}.cls-2{fill:#aa8d3d;}</style></defs><g id="Capa_2" data-name="Capa 2"><g id="Capa_1-2" data-name="Capa 1"><g class="cls-1"><path class="cls-2" d="M83.37,9.69l0-.09a.66.66,0,0,0-.12-.17.5.5,0,0,0-.17-.1.37.37,0,0,0-.23,0,.35.35,0,0,0-.18.16.13.13,0,0,0,0,.13.31.31,0,0,0,.16.06.17.17,0,0,1,0,.07H83l-.13,0v.1a.79.79,0,0,1,0,.13.16.16,0,0,0,0,.06l0,0h0a.24.24,0,0,1-.11.06s0-.07,0-.11a.94.94,0,0,0-.16-.23,1.56,1.56,0,0,0-.2-.16.49.49,0,0,0-.45-.05.38.38,0,0,0-.13.09l0,.06,0,.08a.34.34,0,0,0,0,.2.66.66,0,0,0,.18.24,1,1,0,0,0,.22.13l.11.05.09,0,0,0-.13.09a1.39,1.39,0,0,1-.32.14,1.65,1.65,0,0,1-.39.09,2.12,2.12,0,0,1-.42,0,1.83,1.83,0,0,1-.4-.05,2.75,2.75,0,0,1-.41-.11l-.19-.08a1,1,0,0,1-.17-.1l-.25-.16a.36.36,0,0,0,0-.11,1.63,1.63,0,0,0,.3-.07,1.77,1.77,0,0,0,.31-.15,1.55,1.55,0,0,0,.27-.24,1.18,1.18,0,0,0,.28-.66,2.25,2.25,0,0,0,0-.26h0a4,4,0,0,0,.68.1,1.48,1.48,0,0,0,.37,0,.88.88,0,0,0,.37-.1.48.48,0,0,0,.17-.12l0-.06h.14l.17,0a1,1,0,0,0,.29-.16,1,1,0,0,0,.37-.6,1.41,1.41,0,0,0,0-.2.1.1,0,0,0,0,0s0,0,0,0a.22.22,0,0,0,0-.08,2.11,2.11,0,0,0-.1-.3,1.64,1.64,0,0,0-.34-.5,2.67,2.67,0,0,0-.43-.37,3.69,3.69,0,0,0-.46-.29l-.47-.24a10.21,10.21,0,0,0-2-.66,14.56,14.56,0,0,0-2.06-.31,20.62,20.62,0,0,0-2.09,0l-1,.07-.75-.57-.28-.2A26.5,26.5,0,0,0,68.6,1.31c-.46-.22-.88-.39-1.27-.54A12.4,12.4,0,0,0,66,.36c-.43-.1-.89-.19-1.35-.25-.23,0-.46-.06-.7-.08a2.34,2.34,0,0,0-.7,0h-.14A.13.13,0,0,0,63,.14c0,.1,0,.2,0,.31l0,.32c0,.13,0,.25,0,.37s0,.19,0,.28v.07l-.56-.08a13.6,13.6,0,0,0-2.11,0,8.89,8.89,0,0,0-1.07.15,6.86,6.86,0,0,0-1.06.29A6.59,6.59,0,0,0,56.17,3l-.41.38-.1.11-.1.1-.19.23a5.3,5.3,0,0,0-.6,1A5.92,5.92,0,0,0,54.25,7,7.29,7.29,0,0,0,54.46,9h-.05a2.87,2.87,0,0,1-.6,0l-.21,0A7.45,7.45,0,0,0,53.82,7a5.93,5.93,0,0,0-.53-2.2,4.82,4.82,0,0,0-.6-1l-.19-.23-.1-.11-.1-.1L51.89,3A6.35,6.35,0,0,0,50,1.83a6.86,6.86,0,0,0-1.06-.29,9,9,0,0,0-1.06-.15,13.6,13.6,0,0,0-2.11,0l-.56.08a.2.2,0,0,1,0-.07c0-.09,0-.18,0-.27l0-.38,0-.42c0-.07,0-.14,0-.21A.13.13,0,0,0,44.94,0h-.15a2.41,2.41,0,0,0-.71,0c-.23,0-.46,0-.68.08A13.69,13.69,0,0,0,42,.36a12.4,12.4,0,0,0-1.31.41c-.39.15-.8.32-1.26.54a25.8,25.8,0,0,0-4.68,2.81l-.33.24-.71.53-1-.07a20.35,20.35,0,0,0-2.08,0,14.14,14.14,0,0,0-2.06.31,10.09,10.09,0,0,0-2,.66l-.47.24a3.94,3.94,0,0,0-.45.29,2.38,2.38,0,0,0-.44.37,1.61,1.61,0,0,0-.33.5,1.33,1.33,0,0,0-.11.3s0,0,0,.07v.1a.67.67,0,0,0,0,.2.93.93,0,0,0,.36.6,1.46,1.46,0,0,0,.3.17l.16,0h.14l0,.06A.66.66,0,0,0,26,8.9a.89.89,0,0,0,.38.1,1.42,1.42,0,0,0,.36,0,5.21,5.21,0,0,0,.69-.1h.05a1,1,0,0,0,0,.25,1.21,1.21,0,0,0,.27.66,1.12,1.12,0,0,0,.28.25,1.28,1.28,0,0,0,.31.15,1.37,1.37,0,0,0,.29.07s0,.08,0,.11l-.24.16-.18.1-.19.08a1.82,1.82,0,0,1-.4.11,2,2,0,0,1-.41.05,2.19,2.19,0,0,1-.42,0,1.59,1.59,0,0,1-.38-.09,1.48,1.48,0,0,1-.33-.14L26,10.53l-.05,0,.09,0,.12-.05a1.07,1.07,0,0,0,.21-.13A.56.56,0,0,0,26.5,10a.34.34,0,0,0,0-.2l-.05-.08L26.4,9.7a.28.28,0,0,0-.14-.09.48.48,0,0,0-.43.05.83.83,0,0,0-.21.16,1.34,1.34,0,0,0-.16.23s0,.08,0,.11a.17.17,0,0,1-.1-.06l0,0h0l0,0,0-.05,0-.13V9.74a.15.15,0,0,1,.05-.08h0a.14.14,0,0,0,.12-.07.13.13,0,0,0,0-.12.31.31,0,0,0-.4-.14.54.54,0,0,0-.18.1.45.45,0,0,0-.11.17.25.25,0,0,0,0,.09s0,.06,0,.08a.54.54,0,0,0,0,.18.61.61,0,0,0,.16.32.45.45,0,0,0,.14.1l.07,0h0l0,0,.24.06h0v0s0,.05,0,.07a.64.64,0,0,0,0,.09l0,.08a.6.6,0,0,0,.09.15.68.68,0,0,0,.24.2,1.39,1.39,0,0,0,.52.17l.24,0,.25,0a3.4,3.4,0,0,0,.46-.06c.15,0,.3-.05.44-.09a2.13,2.13,0,0,0,.45-.13,1,1,0,0,0,.21-.09,1.39,1.39,0,0,0,.21-.11l.22-.15,0,0a1,1,0,0,0,.41.29,2.06,2.06,0,0,0,.46.13,3.55,3.55,0,0,0,.46,0,3.43,3.43,0,0,0,.47,0,5.65,5.65,0,0,0,.87-.23,10,10,0,0,0,1.63-.74,14.46,14.46,0,0,0,1.49-1c.24-.17.47-.36.7-.54L36,8.07l.78-.61a4.37,4.37,0,0,1,.81.69,2.87,2.87,0,0,1,.47.72,2.4,2.4,0,0,1,.19.85v.16h.12l-.12,0v0a1.55,1.55,0,0,1,0,.21,1,1,0,0,1-.17.38l-.06.07a1.2,1.2,0,0,0-.09-.29.61.61,0,0,0-.21-.26L37.58,10l-.08,0a.37.37,0,0,0-.17-.05A.69.69,0,0,0,37,10a.63.63,0,0,0-.28.23.58.58,0,0,0-.1.36s0,.06,0,.1l0,.08a1.11,1.11,0,0,0,.07.16.94.94,0,0,0,.24.25,1,1,0,0,0,.3.13.75.75,0,0,0,.33,0h.09a.49.49,0,0,0,0,.12,2.33,2.33,0,0,1-.3.91,2.93,2.93,0,0,1-.63.75,4,4,0,0,1-.39.29,2.93,2.93,0,0,1-.43.23,3.1,3.1,0,0,1-.94.24,2.51,2.51,0,0,1-.48,0,1.93,1.93,0,0,1-.44-.12,1.76,1.76,0,0,1-.68-.51,2.21,2.21,0,0,1-.4-.67c0-.07-.05-.13-.07-.2l0-.1,0-.11a1.67,1.67,0,0,1-.06-.44,1.21,1.21,0,0,1,.07-.43,1.05,1.05,0,0,1,.23-.36,1.36,1.36,0,0,1,.36-.25l.22-.08.22,0a1.12,1.12,0,0,1,.45,0,1.06,1.06,0,0,1,.4.19.75.75,0,0,1,.15.16,1.76,1.76,0,0,1,.12.2,1.26,1.26,0,0,1,.12.45A.91.91,0,0,1,35,12a.77.77,0,0,1-.27.35.16.16,0,0,0-.05.09.14.14,0,0,0,0,.09.1.1,0,0,0,.08,0,.17.17,0,0,0,.1,0,1.19,1.19,0,0,0,.35-.45,1.17,1.17,0,0,0,.1-.56,1.57,1.57,0,0,0-.13-.55,1.86,1.86,0,0,0-.14-.25,1.3,1.3,0,0,0-.19-.22,1.32,1.32,0,0,0-.51-.27,1.54,1.54,0,0,0-.57-.07l-.28,0a2.29,2.29,0,0,0-.28.09,1.54,1.54,0,0,0-.49.3,2,2,0,0,0-.38.44,2.9,2.9,0,0,0-.26.53,2.64,2.64,0,0,0-.14.6v.15a.75.75,0,0,0,0,.15,1.08,1.08,0,0,0,0,.32,1.8,1.8,0,0,0,.69,1.1,1.86,1.86,0,0,0,.58.29,2.5,2.5,0,0,0,.59.1h.55l.54,0a3.59,3.59,0,0,0,1-.31,2.43,2.43,0,0,0,.47-.28,3.39,3.39,0,0,0,.42-.33,3.1,3.1,0,0,0,.68-.84,2.58,2.58,0,0,0,.35-1,2.09,2.09,0,0,0,0-.25,1.27,1.27,0,0,0,.42-.31,1.6,1.6,0,0,0,.33-.51,2.49,2.49,0,0,0,.11-.29s0-.05,0-.08l0-.06,0-.15a2.92,2.92,0,0,0,0-1.18,2.75,2.75,0,0,0-.54-1.08,3.6,3.6,0,0,0-.75-.7l.33-.25.11,0,.55.25c.38.16.69.28,1,.37l.51.15.22,0a3.62,3.62,0,0,0-.13.35,2.74,2.74,0,0,0,0,.28,2.51,2.51,0,0,0,0,.27,3.74,3.74,0,0,0,0,.58,2.31,2.31,0,0,0,.14.59,2.17,2.17,0,0,0,.3.53,2.15,2.15,0,0,0,.43.42A2.92,2.92,0,0,0,42,11a6.05,6.05,0,0,0,1.07.19h.16a3.77,3.77,0,0,0,.35.76,3.72,3.72,0,0,0,.75.88,4.25,4.25,0,0,0,1,.61,6.15,6.15,0,0,0,1,.34,7.32,7.32,0,0,0,1.06.16,5.25,5.25,0,0,0,.54,0,4.91,4.91,0,0,0,.53,0,7,7,0,0,0,1-.24,7.28,7.28,0,0,0,1-.39,6.17,6.17,0,0,0,.9-.55,4.56,4.56,0,0,0,.8-.7,4.86,4.86,0,0,0,.63-.87,7.16,7.16,0,0,0,.68-1.51l.36,0a3.22,3.22,0,0,0,.71-.08l.09,0a7.24,7.24,0,0,0,.7,1.6,6.47,6.47,0,0,0,.63.87,5,5,0,0,0,.8.7,6.75,6.75,0,0,0,.9.55,7.4,7.4,0,0,0,1,.39,6.92,6.92,0,0,0,1,.24,4.9,4.9,0,0,0,.54,0,5,5,0,0,0,.53,0,7.11,7.11,0,0,0,1.06-.16,5.88,5.88,0,0,0,1-.34,4,4,0,0,0,1-.61,3.51,3.51,0,0,0,.75-.88,3.32,3.32,0,0,0,.36-.76H65A5.89,5.89,0,0,0,66.11,11a3.06,3.06,0,0,0,1-.51,2.38,2.38,0,0,0,.42-.42,2,2,0,0,0,.31-.53A2.3,2.3,0,0,0,68,8.9a2.8,2.8,0,0,0,0-.58l0-.27a2.8,2.8,0,0,0-.06-.28,2.09,2.09,0,0,0-.13-.35l.22,0a4.91,4.91,0,0,0,.51-.15c.29-.09.59-.21,1-.37l.55-.25.11,0,.33.25a3.6,3.6,0,0,0-.75.7,2.73,2.73,0,0,0-.53,1.08,2.79,2.79,0,0,0,0,1.19.78.78,0,0,0,0,.14l0,.14a1.66,1.66,0,0,0,.1.29,2,2,0,0,0,.33.51,1.27,1.27,0,0,0,.42.31,2.11,2.11,0,0,0,0,.25,2.56,2.56,0,0,0,.34,1,3.54,3.54,0,0,0,.68.84,4.35,4.35,0,0,0,.42.33,3.31,3.31,0,0,0,1.51.59l.54,0h.56a2.59,2.59,0,0,0,.59-.1,1.9,1.9,0,0,0,1-.78,2.16,2.16,0,0,0,.24-.61,2.79,2.79,0,0,0,0-.32v-.31a2.82,2.82,0,0,0-.14-.59,2.89,2.89,0,0,0-.26-.53,2,2,0,0,0-.38-.44,1.54,1.54,0,0,0-.49-.3l-.27-.09-.29,0a1.54,1.54,0,0,0-.57.07,1.32,1.32,0,0,0-.51.27,1.3,1.3,0,0,0-.19.22,2.8,2.8,0,0,0-.14.25,1.83,1.83,0,0,0-.13.55,1.3,1.3,0,0,0,.1.56,1.2,1.2,0,0,0,.36.45.14.14,0,0,0,.09,0l.09,0a.14.14,0,0,0,0-.18A.86.86,0,0,1,73,12a.91.91,0,0,1-.07-.44,1.1,1.1,0,0,1,.13-.45,1.28,1.28,0,0,1,.11-.2.75.75,0,0,1,.15-.16,1.06,1.06,0,0,1,.4-.19,1.14,1.14,0,0,1,.45,0l.23,0,.21.08a1.41,1.41,0,0,1,.37.25,1.05,1.05,0,0,1,.23.36,1.54,1.54,0,0,1,.06.43,1.67,1.67,0,0,1-.06.44l0,.14a.25.25,0,0,1,0,.07,1.59,1.59,0,0,1-.07.2,2,2,0,0,1-.4.67,1.54,1.54,0,0,1-.29.28,2,2,0,0,1-.39.23,1.69,1.69,0,0,1-.44.12,2.51,2.51,0,0,1-.48,0,3,3,0,0,1-.93-.24,2,2,0,0,1-.43-.23,4.1,4.1,0,0,1-.4-.29,3.14,3.14,0,0,1-.63-.75,2.26,2.26,0,0,1-.29-.91.49.49,0,0,1,0-.12h.08a.74.74,0,0,0,.33,0,1,1,0,0,0,.3-.13.94.94,0,0,0,.24-.25,1.11,1.11,0,0,0,.07-.16s0,0,0,0v0a.28.28,0,0,0,0-.09.64.64,0,0,0-.09-.36.66.66,0,0,0-.29-.23.69.69,0,0,0-.35,0,.3.3,0,0,0-.16.05l-.08,0a.18.18,0,0,0-.07.05.69.69,0,0,0-.21.26,1.9,1.9,0,0,0-.09.29l-.06-.07a1,1,0,0,1-.17-.38.76.76,0,0,1,0-.21V9.72a2.21,2.21,0,0,1,.2-.85,2.58,2.58,0,0,1,.46-.72,4.72,4.72,0,0,1,.81-.69l.78.61.69.55c.23.18.46.37.7.54a12.68,12.68,0,0,0,1.5,1,9.92,9.92,0,0,0,1.62.74,5.75,5.75,0,0,0,.88.23,3.15,3.15,0,0,0,.46,0,3.55,3.55,0,0,0,.46,0,1.79,1.79,0,0,0,.46-.13,1,1,0,0,0,.42-.29v0l.22.15.21.11A.85.85,0,0,0,80,11a1.89,1.89,0,0,0,.44.13l.44.09a3.4,3.4,0,0,0,.46.06l.25,0,.25,0a1.4,1.4,0,0,0,.51-.17.68.68,0,0,0,.24-.2.6.6,0,0,0,.09-.15l0-.08a.31.31,0,0,0,0-.08.25.25,0,0,0,0-.08v0h0l.25-.07H83l.07,0,.13-.1a.52.52,0,0,0,.16-.32.54.54,0,0,0,0-.18.22.22,0,0,0,0-.08m-1.13.5a.53.53,0,0,1-.16,0,.49.49,0,0,1-.16-.1.2.2,0,0,1-.09-.1h0v0l0,0,0,0a.11.11,0,0,1,.09,0,.24.24,0,0,1,.13.05.46.46,0,0,1,.2.25v0h0m-11.82.63a.88.88,0,0,1,.1-.35.31.31,0,0,1,.11-.14l0,0,0,0,.08,0a.3.3,0,0,1,.16,0,.35.35,0,0,1,.11.1.18.18,0,0,1,0,.13v0a0,0,0,0,0,0,0l0,.08a.48.48,0,0,1-.29.18h-.18l-.13,0m-32.78,0-.13,0h-.17a.48.48,0,0,1-.3-.18l0-.11v-.05a.16.16,0,0,1,0-.13.29.29,0,0,1,.1-.09.27.27,0,0,1,.13,0h0l.08,0,0,0,0,0a.4.4,0,0,1,.11.14,1.13,1.13,0,0,1,.09.35m39.9,0a6.45,6.45,0,0,1-.83-.22,9.42,9.42,0,0,1-1.58-.72,14.46,14.46,0,0,1-1.46-.95L73,8.38l-.68-.55-.7-.56L72,7.05c.16-.09.33-.18.49-.25l.61.46.83.61.43.29.42.3a16.48,16.48,0,0,0,1.77,1.1,5.39,5.39,0,0,0,1,.41,8.16,8.16,0,0,0,1,.27l.28,0h.06a1.62,1.62,0,0,0,.17.19v0a.88.88,0,0,1-.3.21,1.84,1.84,0,0,1-.39.1,2.89,2.89,0,0,1-.83,0M67.13,7.1a.18.18,0,0,1-.11,0,.2.2,0,0,1-.08,0l0,0s0,0,0,0l0,0a.69.69,0,0,1,.17.11Zm.45,0a1.28,1.28,0,0,0-.26-.26,1,1,0,0,0-.25-.17.59.59,0,0,0-.2,0,.32.32,0,0,0-.24.11.38.38,0,0,0-.08.24.53.53,0,0,0,0,.2.47.47,0,0,0,.13.15.38.38,0,0,0,.15.09.94.94,0,0,0,.31.07h.22a1.26,1.26,0,0,1,.14.38,1.55,1.55,0,0,1,0,.22,1,1,0,0,1,0,.24,1.66,1.66,0,0,1-.13.44,2.31,2.31,0,0,1-.22.39,3.49,3.49,0,0,1-.26.35c-.09.11-.2.22-.3.32a4.3,4.3,0,0,1-.75.56,3.09,3.09,0,0,1-.87.36,4.71,4.71,0,0,0,.08-1A7.27,7.27,0,0,0,65,8.65l-.12-.52a4.52,4.52,0,0,0-.65-1.45,5.45,5.45,0,0,0-.69-.81,3.71,3.71,0,0,0-.89-.61,3.48,3.48,0,0,0-1-.36,3.38,3.38,0,0,0-1.14,0,3.08,3.08,0,0,0-1.12.37,2.93,2.93,0,0,0-.9.81,2.06,2.06,0,0,0-.3.54c0,.1-.07.2-.1.3a2.93,2.93,0,0,0,0,.29A3.89,3.89,0,0,0,58,8.3a4,4,0,0,0,.32,1.06,2.38,2.38,0,0,0,.67.87,2.07,2.07,0,0,0,1,.44A1.9,1.9,0,0,0,61,10.55l.27-.16.14.09a5.39,5.39,0,0,0,.48.25,5.69,5.69,0,0,0,1.94.44l-.15.23a4.74,4.74,0,0,1-.57.72,5.76,5.76,0,0,1-.7.62,3.94,3.94,0,0,1-.84.48,3.76,3.76,0,0,1-.94.27,4.57,4.57,0,0,1-2-.14,5.27,5.27,0,0,1-1.79-.89,4.66,4.66,0,0,1-.71-.69,4,4,0,0,1-.52-.84,5.22,5.22,0,0,1-.45-1.66l.12-.09A.7.7,0,0,0,55.5,9a.92.92,0,0,0,.2-.36.7.7,0,0,0,0-.43.63.63,0,0,0-.29-.33.17.17,0,0,0-.17.06.11.11,0,0,0,0,.16.33.33,0,0,1,.12.2.36.36,0,0,1,0,.21.66.66,0,0,1-.14.2h0a7,7,0,0,1,.13-1.64,6.77,6.77,0,0,1,.61-1.76,6.18,6.18,0,0,1,.48-.76l.15-.18.07-.08.07-.09L57,3.89a8.22,8.22,0,0,1,1.5-1.17A6.73,6.73,0,0,1,60.33,2a6.92,6.92,0,0,1,1.59-.18h.4l.55.06v0l0,.28c0,.18,0,.35-.05.52a.13.13,0,0,0,.11.14h.17a4.37,4.37,0,0,0,.84.29l.83.26a13.79,13.79,0,0,1,1.6.69,22.63,22.63,0,0,1,3,1.85l.41.3h0l-.37.19c-.37.18-.66.31-.93.41L67.91,7l-.33.08M61.21,9.92a2.94,2.94,0,0,1-.36-.33,1.82,1.82,0,0,1-.29-.38.9.9,0,0,1-.12-.41,1,1,0,0,1,0-.4.36.36,0,0,1,.06-.11l.12-.09a.58.58,0,0,1,.26-.06H61a.53.53,0,0,1,.32.19,1.11,1.11,0,0,1,.2.39,1.7,1.7,0,0,1,.07.46,1.33,1.33,0,0,1-.07.45,1.07,1.07,0,0,1-.21.36l-.09-.07m.59-.18a1.42,1.42,0,0,0,.11-.55,2.13,2.13,0,0,0,0-.57,1.73,1.73,0,0,0-.25-.53,1.31,1.31,0,0,0-.49-.39,1.23,1.23,0,0,0-.33-.08,1,1,0,0,0-.36.06.78.78,0,0,0-.32.21.72.72,0,0,0-.17.36,1,1,0,0,0,0,.34,1.84,1.84,0,0,0,.07.3,2,2,0,0,0,.11.26,1.65,1.65,0,0,0,.14.26,2.4,2.4,0,0,0,.34.42,3.08,3.08,0,0,0,.41.36l0,0-.13.08a1.69,1.69,0,0,1-.93.11,1.72,1.72,0,0,1-.85-.4,1.52,1.52,0,0,1-.32-.35,1.89,1.89,0,0,1-.2-.43,2.36,2.36,0,0,1-.09-.93,3.36,3.36,0,0,1,.22-.91c0-.07.06-.15.09-.21s.07-.13.1-.19a3,3,0,0,1,.25-.34,3,3,0,0,1,.65-.56,4,4,0,0,1,.8-.41,2.6,2.6,0,0,1,.9-.21,2.43,2.43,0,0,1,.47,0,2,2,0,0,1,.46.12,3,3,0,0,1,.84.49,3.6,3.6,0,0,1,.66.74,3.69,3.69,0,0,1,.42.9,3.33,3.33,0,0,1,.1.47,2.74,2.74,0,0,1,0,.5,4,4,0,0,1-.09,1,4.79,4.79,0,0,1-.28.91l-.12.26h0a4.66,4.66,0,0,1-2-.39,4.63,4.63,0,0,1-.43-.24l-.07,0a1.27,1.27,0,0,0,.26-.43M80.87,5.88,81,6l.06,0,.23.11a2.76,2.76,0,0,1,.76.61,2.16,2.16,0,0,1,.27.38,2.87,2.87,0,0,1,.19.4l0,.2v0l.13,0-.12.06v.07a.73.73,0,0,1-.09.35.39.39,0,0,1-.1.14.3.3,0,0,1-.08,0l-.1,0a.51.51,0,0,0-.13-.09.6.6,0,0,0-.19-.06.12.12,0,0,0-.14.09h0a.27.27,0,0,0,0,.23.33.33,0,0,0,.14.1.91.91,0,0,1-.26.06h-.32a4.12,4.12,0,0,1-.65-.1l-.16,0,0-.09A4.32,4.32,0,0,0,80.32,8a2.56,2.56,0,0,0-.11-.24c0-.08-.09-.16-.14-.24a3.37,3.37,0,0,0-.34-.43,3.48,3.48,0,0,0-.85-.65,5.15,5.15,0,0,0-1-.41,7.12,7.12,0,0,0-1-.23c-.34,0-.69-.08-1.05-.1h-.39l-.55-.4.47,0a17.66,17.66,0,0,1,2,0,11.66,11.66,0,0,1,2,.23l.49.12.49.14.48.17m-6.45-.53.48.35h-.12l-1,.07-.3,0-.06,0-.24-.19.2,0c.34-.07.67-.12,1-.16l.09,0m3.39,1a3.86,3.86,0,0,1,.92.39,3,3,0,0,1,.76.61,2.46,2.46,0,0,1,.29.39,1.51,1.51,0,0,1,.11.22.9.9,0,0,1,.08.21,1.19,1.19,0,0,1,0,.32A8.74,8.74,0,0,1,78.85,8c-.37-.19-.74-.41-1.16-.68l-1-.67-.15-.09L76,6.08a6.48,6.48,0,0,1,1.84.23m-1.28.54,1,.67a12.61,12.61,0,0,0,1.19.68A8.29,8.29,0,0,0,80,8.73s0,0,0,.06,0,.13-.07.19a1.72,1.72,0,0,1-.19.3,1.06,1.06,0,0,1-.26.2l-.18.07-.13-.07a.34.34,0,0,0-.22,0,.36.36,0,0,0-.14.11s0,0,0,.05l-.17,0h-.48a2.46,2.46,0,0,1-.47-.1,5.2,5.2,0,0,1-.93-.36A15.29,15.29,0,0,1,75,8.17l-.42-.28-.43-.29L73.27,7l-.47-.35c.27-.11.54-.2.81-.28.26.22.53.43.8.64l.75.56c.21.15.49.35.79.53a6.38,6.38,0,0,0,.85.45,4.27,4.27,0,0,0,.46.16,1.81,1.81,0,0,0,.49.07.13.13,0,0,0,0-.26,1.33,1.33,0,0,1-.43-.07l-.42-.15a6,6,0,0,1-.81-.45c-.22-.14-.46-.31-.76-.53s-.49-.37-.74-.57-.39-.32-.59-.48a7.9,7.9,0,0,1,.8-.14l.64,0,1,.66ZM72.72,5.66l.26.21-.31.06a5.47,5.47,0,0,0-.64.15l-.22-.17.91-.25M66.49,3.78a14.42,14.42,0,0,0-1.64-.7c-.27-.1-.56-.2-.85-.28l-.56-.14.06-.55a.86.86,0,0,0,0-.16,7.73,7.73,0,0,1,.81.16,13.74,13.74,0,0,1,1.94.64,17.69,17.69,0,0,1,3.54,2c.4.28.8.58,1.18.87L70.24,6l-.19.09-.55-.4a23,23,0,0,0-3-1.88M73.24,5a6,6,0,0,0-.61.13c-.31-.26-.63-.51-.95-.75s-.5-.38-.76-.56l-.78-.52a18.61,18.61,0,0,0-1.64-1,12.62,12.62,0,0,0-1.74-.74c-.33-.11-.67-.2-.92-.26s-.64-.14-.92-.19a.17.17,0,0,0-.1,0,.22.22,0,0,0,0,.08.12.12,0,0,0,.1.14,14.75,14.75,0,0,1,1.79.49,12.4,12.4,0,0,1,1.69.74c.49.26,1,.57,1.6.95s1.1.74,1.53,1.07l.73.57a8.75,8.75,0,0,0-.91.28c-.43-.34-.88-.67-1.33-1A20.46,20.46,0,0,0,68.23,3.4a16.92,16.92,0,0,0-1.85-.94,14.4,14.4,0,0,0-2-.69l-.87-.19s0-.08,0-.13,0-.24,0-.36l0-.64V.33l.24,0H64c.23,0,.45,0,.67.08a12.9,12.9,0,0,1,1.32.24c.43.11.86.25,1.27.4s.82.33,1.25.52a26.83,26.83,0,0,1,4.63,2.77l.25.19c.17.12.34.24.5.37q-.3,0-.6.09m-1.86,1,.1,0,.21.17-.08,0a5.83,5.83,0,0,0-.83.41l-.28-.21c.29-.13.58-.25.88-.36M43.63,9.67a4,4,0,0,1-.09-1,3.89,3.89,0,0,1,0-.49,2.77,2.77,0,0,1,.11-.48,3.69,3.69,0,0,1,.42-.9,3.29,3.29,0,0,1,.65-.74,3,3,0,0,1,.84-.49,2,2,0,0,1,.46-.12,2.43,2.43,0,0,1,.47,0,2.82,2.82,0,0,1,.9.2,5.16,5.16,0,0,1,.81.42,3.6,3.6,0,0,1,.65.56,2.62,2.62,0,0,1,.24.34,1.14,1.14,0,0,1,.1.19l.09.21a3.29,3.29,0,0,1,.23.91,2.19,2.19,0,0,1-.1.93,1.89,1.89,0,0,1-.2.43,1.73,1.73,0,0,1-.31.35,1.8,1.8,0,0,1-.86.4,1.71,1.71,0,0,1-.93-.11L47,10.21l0,0a3.08,3.08,0,0,0,.41-.36,2.44,2.44,0,0,0,.35-.42c0-.09.1-.17.14-.26a2,2,0,0,0,.1-.26,1.09,1.09,0,0,0,.07-.3,1,1,0,0,0,0-.34A.86.86,0,0,0,48,7.89a.72.72,0,0,0-.32-.21.85.85,0,0,0-.36-.06,1.32,1.32,0,0,0-.33.08,1.31,1.31,0,0,0-.49.39,1.51,1.51,0,0,0-.24.53,1.78,1.78,0,0,0-.06.57,1.63,1.63,0,0,0,.11.55,1.45,1.45,0,0,0,.26.43l-.07,0a4.63,4.63,0,0,1-.43.24,4.71,4.71,0,0,1-1.9.39H44l-.12-.26a5,5,0,0,1-.28-.91m2.93,0a1.12,1.12,0,0,1-.07-.45,1.76,1.76,0,0,1,.06-.46,1.19,1.19,0,0,1,.2-.39.53.53,0,0,1,.32-.19h.08a.65.65,0,0,1,.26.06.31.31,0,0,1,.11.09.23.23,0,0,1,.06.11,1,1,0,0,1,.05.4,1,1,0,0,1-.13.41,2.2,2.2,0,0,1-.28.38,2.94,2.94,0,0,1-.36.33l-.1.07a1,1,0,0,1-.2-.36m-1.64,2.49a4.74,4.74,0,0,1-.57-.72c-.05-.08-.1-.15-.14-.23a5.68,5.68,0,0,0,1.93-.44,5.39,5.39,0,0,0,.48-.25.67.67,0,0,0,.14-.09l.27.16a1.94,1.94,0,0,0,1.1.12,2.11,2.11,0,0,0,1-.44,2.47,2.47,0,0,0,.66-.87,3.54,3.54,0,0,0,.32-1.06,3.57,3.57,0,0,0,0-1.13l-.06-.29a1.63,1.63,0,0,0-.1-.29A2.42,2.42,0,0,0,49.66,6a2.84,2.84,0,0,0-.91-.81,3.08,3.08,0,0,0-1.12-.37,3.38,3.38,0,0,0-1.14,0,3.48,3.48,0,0,0-1,.36,3.66,3.66,0,0,0-.88.61,4.48,4.48,0,0,0-.69.81,5,5,0,0,0-.5.94c-.06.17-.11.34-.16.51s-.08.35-.11.52A6.21,6.21,0,0,0,43,9.73a4.09,4.09,0,0,0,.09,1,2.86,2.86,0,0,1-.87-.36,4.07,4.07,0,0,1-.75-.56c-.11-.1-.21-.21-.31-.32a3.49,3.49,0,0,1-.26-.35,2.67,2.67,0,0,1-.22-.39,2,2,0,0,1-.13-.44,1.94,1.94,0,0,1,0-.24.56.56,0,0,1,0-.22,1.23,1.23,0,0,1,.13-.38,1.77,1.77,0,0,0,.23,0,.94.94,0,0,0,.3-.07.38.38,0,0,0,.15-.09.43.43,0,0,0,.14-.16.45.45,0,0,0,0-.2.33.33,0,0,0-.07-.23.34.34,0,0,0-.25-.11.54.54,0,0,0-.2,0,1,1,0,0,0-.25.17,1.6,1.6,0,0,0-.26.26L40.15,7l-.47-.16c-.34-.13-.67-.29-.93-.41l-.35-.17,0,0,.4-.3a23.31,23.31,0,0,1,3-1.85,14.57,14.57,0,0,1,1.6-.69l.83-.26A5,5,0,0,0,45,2.84h.16a.13.13,0,0,0,.11-.13c0-.19,0-.37-.05-.55l0-.26v0l.55-.06a6.66,6.66,0,0,1,3.8.92A8.06,8.06,0,0,1,51,3.89l.33.34.09.11.06.06.14.18a5.18,5.18,0,0,1,.48.76,6.77,6.77,0,0,1,.61,1.76,7.08,7.08,0,0,1,.13,1.77.61.61,0,0,1-.16-.09l0,0,0,0,0-.07a.67.67,0,0,1-.05-.19.4.4,0,0,1,0-.19.44.44,0,0,1,.17-.16.18.18,0,0,0,0-.16.12.12,0,0,0-.1-.09.58.58,0,0,0-.45.14.74.74,0,0,0-.24.43.94.94,0,0,0,.06.47,1.59,1.59,0,0,0,.13.22l.09.08.09.07a1.56,1.56,0,0,0,.45.22,5.06,5.06,0,0,1-.43,1.43,4.37,4.37,0,0,1-.51.84,4.3,4.3,0,0,1-.72.69,5.23,5.23,0,0,1-1.78.89,4.6,4.6,0,0,1-2,.14,3.88,3.88,0,0,1-.94-.27,3.94,3.94,0,0,1-.84-.48,5.76,5.76,0,0,1-.7-.62m-4-5,0,0A.51.51,0,0,1,41.14,7l0,0a.43.43,0,0,0,0,0l0,0-.07,0a.2.2,0,0,1-.11,0M26.38,8.74a.83.83,0,0,1-.26-.06.31.31,0,0,0,.13-.1.28.28,0,0,0,0-.24.14.14,0,0,0-.15-.09,1.06,1.06,0,0,0-.19.06.51.51,0,0,0-.13.09l-.1,0s-.06,0-.07,0a.4.4,0,0,1-.11-.14.85.85,0,0,1-.09-.35V7.76s0,0,0,0v0a1.46,1.46,0,0,1,.05-.2,2,2,0,0,1,.18-.4A3.37,3.37,0,0,1,26,6.69a2.58,2.58,0,0,1,.75-.61L27,6,27,6l.18-.07.48-.17.49-.14.49-.12a11.66,11.66,0,0,1,2-.23,17.7,17.7,0,0,1,2,0l.46,0-.54.4h-.4c-.36,0-.71,0-1.05.1a7.44,7.44,0,0,0-1,.23,4.8,4.8,0,0,0-1,.41,3.54,3.54,0,0,0-.86.65,2.6,2.6,0,0,0-.33.43,1.49,1.49,0,0,0-.14.24L27.74,8a4.32,4.32,0,0,0-.21.52l0,.09-.16,0a3.52,3.52,0,0,1-.65.1h-.31m7.35-3.37c.33,0,.67.09,1,.16l.2,0-.24.2-.06,0-.3,0-1-.07h-.13l.49-.35.08,0M28.09,8.13a1.56,1.56,0,0,1,.08-.21,1.55,1.55,0,0,1,.12-.22,2.37,2.37,0,0,1,.28-.39,3,3,0,0,1,.76-.61,4,4,0,0,1,.92-.39,6.5,6.5,0,0,1,1.85-.23l-.61.43-.14.09-1,.67A12.34,12.34,0,0,1,29.21,8a8.64,8.64,0,0,1-1.16.5,1.12,1.12,0,0,1,0-.32m1.25.07a11.72,11.72,0,0,0,1.19-.68c.33-.21.66-.44,1-.66l.15-.11.95-.66.64,0a7,7,0,0,1,.8.14c-.19.16-.39.33-.59.48s-.49.39-.74.57a9.09,9.09,0,0,1-.76.53,6.61,6.61,0,0,1-.8.45l-.43.15a1.32,1.32,0,0,1-.42.07.14.14,0,0,0-.12.13.13.13,0,0,0,.13.13,1.92,1.92,0,0,0,.49-.07,4.27,4.27,0,0,0,.46-.16,7.9,7.9,0,0,0,.85-.45c.28-.18.55-.37.78-.53s.51-.37.76-.56l.8-.64c.26.08.53.17.8.28L34.79,7c-.27.2-.55.4-.84.59l-.42.29-.43.28a13.08,13.08,0,0,1-1.75,1.05,5.43,5.43,0,0,1-.92.36,2.73,2.73,0,0,1-.48.1h-.48l-.16,0s0,0,0,0a.29.29,0,0,0-.15-.12.3.3,0,0,0-.21,0,.61.61,0,0,0-.14.07l-.17-.07a1,1,0,0,1-.27-.2,1.26,1.26,0,0,1-.18-.3,1.07,1.07,0,0,1-.07-.19l0-.06a7.39,7.39,0,0,0,1.26-.53m6.05-2.28-.3,0,.26-.21.9.25L36,6.08l-.64-.16m2.44,0-.75-.33c.39-.29.78-.59,1.18-.87a18,18,0,0,1,3.55-2,13.63,13.63,0,0,1,1.93-.64C44,2,44.28,2,44.55,2c0,.05,0,.11,0,.16l.06.55-.56.14c-.28.08-.57.17-.85.28a15.23,15.23,0,0,0-1.64.7,22.34,22.34,0,0,0-3,1.88c-.19.13-.36.27-.54.41L37.83,6M44.5.81v.31c0,.11,0,.22,0,.34s0,.08,0,.12l-.86.19a13.94,13.94,0,0,0-2,.69,16.2,16.2,0,0,0-1.86.94c-.54.32-1.11.69-1.73,1.14-.45.32-.9.65-1.34,1a8.57,8.57,0,0,0-.9-.28l.73-.57c.43-.33.9-.66,1.52-1.07s1.11-.69,1.6-.95a13.58,13.58,0,0,1,1.69-.74,15,15,0,0,1,1.8-.49.12.12,0,0,0,.09-.14h0a.14.14,0,0,0,0-.08.1.1,0,0,0-.09,0c-.3.05-.6.11-.93.19a9,9,0,0,0-.91.26,12.74,12.74,0,0,0-1.75.74,17.17,17.17,0,0,0-1.63,1l-.79.52c-.26.18-.51.37-.76.56s-.64.49-1,.75A6,6,0,0,0,34.82,5q-.3-.06-.6-.09l.48-.36.28-.2a26.09,26.09,0,0,1,4.63-2.77c.43-.19.84-.37,1.24-.52A11,11,0,0,1,43.44.45c.23,0,.45-.06.67-.08h.13l.25,0s0,.06,0,.09ZM29.17,10.29h0l.28,0a7.74,7.74,0,0,0,1-.27,5.7,5.7,0,0,0,1-.41,15.55,15.55,0,0,0,1.77-1.1l.48-.34.37-.25L35,7.26l.6-.46c.16.07.33.16.5.25l.38.22-.69.56-.69.55-.69.54a15.67,15.67,0,0,1-1.46.95,9.42,9.42,0,0,1-1.58.72,5.93,5.93,0,0,1-.82.22,2.88,2.88,0,0,1-.83,0,1.69,1.69,0,0,1-.39-.1.88.88,0,0,1-.3-.21l0,0a1.66,1.66,0,0,0,.18-.19m7.28-4.08-.08,0L36.59,6l.09,0c.3.11.6.23.89.36l-.28.21a6.55,6.55,0,0,0-.84-.41m-10.67,4s0,0,0,0A.39.39,0,0,1,26,9.91a.27.27,0,0,1,.13-.05h0a.17.17,0,0,1,.11.06v0a.27.27,0,0,1-.09.11l-.16.09-.18,0h0"/><path class="cls-2" d="M55.8,44.21a3.55,3.55,0,0,1-1.07-.16c-.56-.16-1.34-.59-2.3-3C50.8,37,46.61,26,46.21,25c-.32-.83-.43-1-.59-1s-.26.16-.59,1L39,41.64C38.49,43,38,44,36.73,44.15a7.39,7.39,0,0,1-.78.06c-.13,0-.24,0-.24.16s.16.21.51.21c1.26,0,2.72-.08,3-.08s1.44.08,2.08.08c.24,0,.4,0,.4-.21s-.08-.16-.27-.16h-.26c-.46,0-1-.24-1-.78a5.7,5.7,0,0,1,.38-1.79l1.6-4.72a.28.28,0,0,1,.27-.22h5.74a.23.23,0,0,1,.24.16l2.48,6.57c.16.43,0,.67-.16.72s-.18.08-.18.19.29.16.8.19c1.84,0,3.79,0,4.19,0s.54,0,.54-.21-.11-.16-.27-.16m-8-8.47h-5.1c-.08,0-.13-.05-.08-.19L45,28.34c.14-.4.27-.4.4,0l2.54,7.21c0,.11,0,.19-.11.19"/><path class="cls-2" d="M90,44.21a3.55,3.55,0,0,1-1.07-.16c-.56-.16-1.34-.59-2.3-3C85,37,80.8,26,80.4,25c-.32-.83-.43-1-.59-1s-.27.16-.59,1L73.16,41.64c-.48,1.34-1,2.35-2.24,2.51a7.39,7.39,0,0,1-.78.06c-.13,0-.24,0-.24.16s.16.21.51.21c1.25,0,2.72-.08,3-.08s1.44.08,2.08.08c.24,0,.4,0,.4-.21s-.08-.16-.27-.16h-.26c-.46,0-1-.24-1-.78a5.7,5.7,0,0,1,.38-1.79l1.6-4.72a.28.28,0,0,1,.27-.22h5.74a.23.23,0,0,1,.24.16l2.48,6.57c.16.43,0,.67-.16.72s-.18.08-.18.19.29.16.8.19c1.84,0,3.79,0,4.19,0s.53,0,.53-.21-.1-.16-.26-.16m-8-8.47H76.9c-.08,0-.13-.05-.08-.19l2.35-7.21c.13-.4.27-.4.4,0l2.54,7.21c0,.11,0,.19-.11.19"/><path class="cls-2" d="M64.43,33.12l-.75-.58c-2.57-2-3.26-3-3.26-4.49A3,3,0,0,1,63.7,25c2.46,0,3.18,1.12,3.34,1.41a4.91,4.91,0,0,1,.35,1.34c0,.21,0,.35.21.35s.19-.19.19-.62c0-1.81.11-2.69.11-2.83s-.06-.19-.27-.19a4,4,0,0,1-.93-.13A10.43,10.43,0,0,0,64.21,24c-3.39,0-5.53,1.95-5.53,4.81,0,1.82.64,3.47,3.48,5.8l1.2,1c2.29,1.89,3.07,3,3.07,4.8A3.57,3.57,0,0,1,62.61,44c-1.79,0-3.55-.75-4-2.73a4.71,4.71,0,0,1-.08-1c0-.21,0-.29-.19-.29s-.19.13-.21.43S58,41.88,58,43.22c0,.72,0,.83.4,1A8.06,8.06,0,0,0,62,45a7.06,7.06,0,0,0,4-1.12,5.54,5.54,0,0,0,2.27-4.43c0-2.14-.75-3.79-3.9-6.28"/><path class="cls-2" d="M34.08,43.53a28.16,28.16,0,0,0,.59-3.38c0-.21-.05-.29-.08-.29s-.1,0-.16.31a5.22,5.22,0,0,1-1,2.3c-1.18,1.2-3,1.37-4.73,1.37a9.56,9.56,0,0,1-7-3A10.16,10.16,0,0,1,18.93,34c0-2.33.29-5,2.44-7.05,1.37-1.33,3.41-2,6.22-2A9,9,0,0,1,33,26.47a3.79,3.79,0,0,1,1.16,2.81c0,.41,0,.45.1.45s.1-.06.13-.46c0-.17,0-.52,0-.94,0-.58,0-1.3.06-1.81s.08-.94.1-1.18a2.24,2.24,0,0,0,0-.31c0-.09,0-.16-.24-.18a24.61,24.61,0,0,1-2.67-.39l-.07,0a23.46,23.46,0,0,0-3.85-.31c-3.53,0-6.17.92-8.07,2.82a10.58,10.58,0,0,0-3,7.21A10,10,0,0,0,20,42c2.17,1.95,4.94,2.85,8.74,2.85a15.86,15.86,0,0,0,4.76-.6c.46-.2.49-.24.63-.71"/><path class="cls-2" d="M89.48,51.45c-.8,0-2.06.08-2.25.08s-1.62-.08-2.83-.08c-.29,0-.42,0-.42.21s.1.16.21.16a5.4,5.4,0,0,1,.91.08c.88.19,1.09.62,1.15,1.53s0,1.6,0,5.77v3.33c0,2.76-.32,5-1.55,6.55A5.59,5.59,0,0,1,80.56,71a5.23,5.23,0,0,1-4-1.47c-1.14-1.09-2-2.75-2-6.6V59.2c0-4.17,0-4.92,0-5.77s.27-1.42,1-1.53a4.34,4.34,0,0,1,.67-.08c.11,0,.21,0,.21-.16s-.13-.21-.42-.21c-.8,0-2.41.08-2.65.08s-1.87-.08-3.07-.08c-.29,0-.43,0-.43.21s.11.16.22.16a5.19,5.19,0,0,1,.9.08c.89.19,1.1.62,1.15,1.53s.06,1.6.06,5.77v3.89c0,3.9,1,5.77,2.32,7A8.21,8.21,0,0,0,80,72a7.85,7.85,0,0,0,5.51-2c2.13-1.9,2.45-5.1,2.45-8V59.2c0-4.17,0-4.92.06-5.77s.26-1.37,1-1.53a4.34,4.34,0,0,1,.67-.08c.11,0,.22,0,.22-.16s-.14-.21-.43-.21"/><path class="cls-2" d="M11.67,68c-.13,0-.18.1-.24.4-.19,1.09-.51,1.63-1.2,1.92a7.76,7.76,0,0,1-2.56.29c-2.62,0-3-.34-3.1-2.19,0-.56,0-3.66,0-4.56V61.55a.17.17,0,0,1,.18-.19c.46,0,3.1,0,3.82.13,1,.11,1.29.56,1.39.94a2.62,2.62,0,0,1,.11.88c0,.13,0,.24.19.24s.18-.3.18-.51.06-1.17.11-1.71c.08-.88.21-1.33.21-1.49s0-.22-.13-.22-.21.14-.4.35-.61.32-1.26.37-3.9.06-4.24.06c-.14,0-.16-.08-.16-.27V52.76c0-.19,0-.27.16-.27.29,0,3.2,0,3.66.08,1.44.16,1.71.48,1.89.91a2.69,2.69,0,0,1,.16,1c0,.21.06.35.22.35s.16-.16.18-.3c.06-.32.11-1.49.14-1.76.08-.75.21-1.07.21-1.25s0-.24-.11-.24-.24.1-.37.13a6.79,6.79,0,0,1-1.15.13c-.61,0-5.93,0-6.11,0l-1.1-.05c-.59,0-1.31,0-1.92,0-.3,0-.43,0-.43.21s.11.16.21.16a5.31,5.31,0,0,1,.91.08c.88.19,1.1.62,1.15,1.53s0,1.6,0,5.77v4.7c0,2.56,0,4.67-.13,5.79-.11.78-.24,1.36-.78,1.47a4.28,4.28,0,0,1-.8.11c-.16,0-.21.08-.21.16s.13.21.43.21,1,0,1.55,0,1,0,1.07,0c.4,0,1,0,2.08.08s2.51.08,4.51.08c1,0,1.26,0,1.45-.69s.34-2.38.34-2.59,0-.4-.16-.4"/><path class="cls-2" d="M69.66,71.27a3.55,3.55,0,0,1-1.07-.16c-.56-.16-1.33-.59-2.3-3-1.63-4.06-5.82-15.09-6.22-16.1-.32-.83-.43-1-.59-1s-.26.16-.58,1L52.83,68.7c-.48,1.34-1,2.35-2.24,2.51a7.39,7.39,0,0,1-.78.06c-.13,0-.24,0-.24.16s.16.21.51.21c1.26,0,2.73-.08,3-.08s1.44.08,2.08.08c.24,0,.4,0,.4-.21s-.08-.16-.26-.16h-.27c-.46,0-1-.24-1-.78a5.7,5.7,0,0,1,.38-1.79L56,64a.28.28,0,0,1,.27-.22H62a.24.24,0,0,1,.24.16l2.48,6.57c.16.43,0,.67-.16.72s-.18.08-.18.19.29.16.8.19c1.84,0,3.79,0,4.19,0s.54,0,.54-.21-.11-.16-.27-.16m-8-8.47h-5.1c-.08,0-.13,0-.08-.19l2.35-7.21c.14-.4.27-.4.4,0l2.54,7.21c0,.11,0,.19-.11.19"/><path class="cls-2" d="M109.54,71.27a4.76,4.76,0,0,1-.94-.16,2.87,2.87,0,0,1-1.57-1.2c-.56-.73-5.13-8.5-5.64-9.33l4.3-6.46C106.47,53,107,52.2,107.75,52a2.84,2.84,0,0,1,.88-.14c.19,0,.29-.08.29-.18s-.13-.19-.42-.19c-.91,0-2,.08-2.25.08s-1.36-.08-2.37-.08c-.32,0-.46.08-.46.19s.08.18.24.18a3.08,3.08,0,0,1,.8.08.6.6,0,0,1,.46.48,2.13,2.13,0,0,1-.27,1c-.27.56-3.13,5.12-3.93,6.27-1.39-2.29-2.48-4.27-3.6-6.38a2,2,0,0,1-.27-.88.45.45,0,0,1,.32-.46,2.4,2.4,0,0,1,.72-.08c.16,0,.24,0,.24-.18s-.08-.19-.45-.19c-.91,0-2.27.08-2.51.08s-2.38-.08-3.13-.08c-.34,0-.45,0-.45.19s.08.18.24.18A5,5,0,0,1,93,52,4.25,4.25,0,0,1,95,54.15l4.28,7.18L94.47,69c-.85,1.36-1.41,2-2.21,2.16a4.17,4.17,0,0,1-1,.14.19.19,0,0,0-.21.18c0,.11,0,.19.26.19.89,0,2.19-.08,2.44-.08s1.92.08,2.56.08c.19,0,.32,0,.32-.19a.19.19,0,0,0-.21-.18,3.2,3.2,0,0,1-.51-.06.51.51,0,0,1-.43-.5,2.72,2.72,0,0,1,.35-1.18L100,62.45c1.6,2.7,3.15,5.35,4.59,8,.24.43,0,.7-.13.75a.21.21,0,0,0-.16.22c0,.13.13.18.82.21,1.37,0,2.65,0,4.28,0,.24,0,.37-.08.37-.21s-.08-.16-.21-.16"/><path class="cls-2" d="M48.1,68c-.13,0-.18.1-.24.4-.18,1.09-.5,1.63-1.2,1.92a7.73,7.73,0,0,1-2.56.29c-2.62,0-3-.34-3.1-2.19,0-.56,0-3.66,0-4.56V61.55a.17.17,0,0,1,.19-.19c.45,0,3.09,0,3.82.13,1,.11,1.28.56,1.39.94a2.86,2.86,0,0,1,.1.88c0,.13.06.24.19.24s.19-.3.19-.51,0-1.17.1-1.71c.08-.88.22-1.33.22-1.49s-.06-.22-.14-.22-.21.14-.4.35-.61.32-1.25.37-3.9.06-4.25.06c-.13,0-.16-.08-.16-.27V52.76c0-.19,0-.27.16-.27.29,0,3.21,0,3.66.08,1.44.16,1.71.48,1.9.91a2.94,2.94,0,0,1,.16,1c0,.21,0,.35.21.35s.16-.16.19-.3c0-.32.1-1.49.13-1.76.08-.75.21-1.07.21-1.25s0-.24-.1-.24-.24.1-.38.13A6.79,6.79,0,0,1,46,51.5c-.61,0-5.93,0-6.11,0l-1.1-.05c-.58,0-1.31,0-1.92,0-.29,0-.43,0-.43.21s.11.16.22.16a5.19,5.19,0,0,1,.9.08c.89.19,1.1.62,1.15,1.53s.06,1.6.06,5.77v4.7c0,2.56,0,4.67-.14,5.79-.1.78-.24,1.36-.77,1.47a4.4,4.4,0,0,1-.8.11c-.16,0-.22.08-.22.16s.14.21.43.21,1,0,1.55,0,1,0,1.07,0c.4,0,1,0,2.08.08s2.51.08,4.52.08c1,0,1.25,0,1.44-.69s.34-2.38.34-2.59,0-.4-.16-.4"/><path class="cls-2" d="M36.25,71.27a6.45,6.45,0,0,1-1-.08,5.57,5.57,0,0,1-3.26-1.93c-1.54-1.65-3.36-4-5.55-6.83,2.4-2.22,3.23-4.2,3.23-6.17a4.69,4.69,0,0,0-1.84-3.64,8.28,8.28,0,0,0-4.89-1.17c-.83,0-2.86.08-3.15.08-.14,0-1.82-.08-3-.08-.29,0-.43,0-.43.21s.11.16.22.16a5.19,5.19,0,0,1,.9.08c.89.19,1.1.62,1.15,1.53s.06,1.6.06,5.76v4.7c0,2.57,0,4.68-.14,5.8-.1.78-.24,1.36-.77,1.47a4.4,4.4,0,0,1-.8.11c-.16,0-.22.08-.22.16s.14.21.43.21c.8,0,2.48-.08,2.51-.08s1.82.08,3.29.08c.29,0,.42-.08.42-.21s-.05-.16-.21-.16-.83-.06-1.2-.11c-.8-.11-1-.69-1-1.47-.14-1.12-.14-3.23-.14-5.8v-.64c0-.13.06-.21.19-.21l3.29.05a.43.43,0,0,1,.34.16c.54.7,1.79,2.49,2.91,4,1.53,2,2.46,3.31,3.61,3.92a5.36,5.36,0,0,0,2.86.51h1.9c.48,0,.64,0,.64-.21s-.11-.16-.24-.16m-10.5-9.51a3.46,3.46,0,0,1-2,.51,7.35,7.35,0,0,1-2.8-.43.36.36,0,0,1-.19-.32V52.78a.32.32,0,0,1,.22-.32,8,8,0,0,1,1.79-.16c2.85,0,4.62,2,4.62,5.35,0,2-.7,3.47-1.63,4.11"/></g></g></g></svg>