<svg xmlns="http://www.w3.org/2000/svg" viewBox="0 0 2890.54 3740.82"><defs><style>.cls-1{fill:#050006;}.cls-2{font-size:48px;}.cls-12,.cls-2,.cls-3,.cls-4{fill:#fafafa;}.cls-2,.cls-4{font-family:Helvetica-Bold, Helvetica;font-weight:700;}.cls-3,.cls-4,.cls-9{font-size:36px;}.cls-13,.cls-3,.cls-9{font-family:Helvetica;}.cls-5{letter-spacing:-0.05em;}.cls-10,.cls-11,.cls-6,.cls-8{fill:none;stroke:#fafafa;stroke-miterlimit:10;}.cls-7{letter-spacing:-0.02em;}.cls-8{stroke-dasharray:11.99 6;}.cls-13,.cls-9{fill:#ce6b03;}.cls-10{stroke-dasharray:11.92 5.96;}.cls-11{stroke-dasharray:11.97 5.99;}.cls-13{font-size:24px;}</style></defs><g id="Capa_2" data-name="Capa 2"><g id="Capa_1-2" data-name="Capa 1"><rect class="cls-1" width="2890.54" height="3740.82"/><text class="cls-2" transform="translate(1190.37 373.94)">Splash Screen</text><text class="cls-3" transform="translate(1047.81 433.49)">User sees a welcome screen explaining <tspan x="0" y="43.2">how the app works</tspan></text><text class="cls-4" transform="translate(1050.12 519.42)">User sights:</text><text class="cls-3" transform="translate(1050.84 570.45)">App Logo |<tspan class="cls-5" x="173.5" y="0"> </tspan><tspan x="181.53" y="0">App Description | Illustration</tspan><tspan x="0" y="43.2">Sign In / Sign Up Elements</tspan></text><text class="cls-4" transform="translate(1051 666.36)">User actions:</text><text class="cls-3" transform="translate(1051.73 717.4)">Sign In | Sign Up (Google<tspan class="cls-5" x="407.58" y="0"> </tspan><tspan x="415.62" y="0">Auth)</tspan></text><rect class="cls-6" x="1300" y="150.44" width="133.87" height="133.87" rx="38.35"/><text class="cls-2" transform="translate(724.89 1080.41)">Sign Up Screen</text><text class="cls-3" transform="translate(582.33 1139.97)">User authorizes sign up using Google</text><rect class="cls-6" x="834.52" y="856.91" width="133.87" height="133.87" rx="38.35"/><text class="cls-2" transform="translate(1629.12 1072.76)">Sign In Screen</text><text class="cls-3" transform="translate(1486.57 1132.31)">If user has already authorized Google,<tspan x="0" y="43.2">user logs in using Google credentials.</tspan></text><rect class="cls-6" x="1738.75" y="849.25" width="133.87" height="133.87" rx="38.35"/><text class="cls-2" transform="translate(1191.51 1895.01)">Matching Pets</text><text class="cls-3" transform="translate(1035.95 1957.57)">User sees the home screen showing<tspan x="0" y="43.2">the possible matches.</tspan></text><text class="cls-4" transform="translate(1038.26 2043.49)">User sights:</text><rect class="cls-6" x="1288.14" y="1674.51" width="133.87" height="133.87" rx="38.35"/><text class="cls-3" transform="translate(1038.98 2089.71)">Pet Photo | Name |<tspan class="cls-5" x="302.85" y="0"> </tspan><tspan x="310.89" y="0">Age | Brief Description</tspan><tspan x="0" y="43.2">Charact |</tspan><tspan class="cls-5" x="145.41" y="43.2"> </tspan><tspan x="153.44" y="43.2">Action Buttons | Profile</tspan></text><text class="cls-4" transform="translate(1040.2 2180.64)">User actions:</text><text class="cls-3" transform="translate(1040.92 2226.86)">Like / Dislike Pets | Return | <tspan class="cls-7" x="450.86" y="0">V</tspan><tspan x="474.24" y="0">iew More</tspan><tspan x="0" y="43.2">See Notifications | See Profile</tspan></text><line class="cls-6" x1="1366.93" y1="753.21" x2="1366.93" y2="788.27"/><polyline class="cls-6" points="1805.69 820.63 1805.69 788.27 901.45 788.27 901.45 820.63"/><polyline class="cls-6" points="914.82 1233.33 914.82 1265.69 1819.05 1265.69 1819.05 1233.33"/><rect class="cls-8" x="1098.41" y="1335.52" width="508.61" height="81.89" rx="38.35"/><text class="cls-3" transform="translate(1128.18 1386.44)">User logs using Google<tspan class="cls-5" x="374.2" y="0"> </tspan><tspan x="382.24" y="0">Auth</tspan></text><line class="cls-6" x1="1353.57" y1="1265.69" x2="1353.57" y2="1335.52"/><line class="cls-6" x1="1070.25" y1="1376.46" x2="914.82" y2="1376.46"/><line class="cls-6" x1="709.82" y1="1376.46" x2="463.21" y2="1376.46"/><text class="cls-9" transform="translate(740.33 1385.18)">new user</text><line class="cls-6" x1="1353.57" y1="1417.41" x2="1353.57" y2="1513.42"/><line class="cls-6" x1="1355.08" y1="1578.51" x2="1355.08" y2="1654.62"/><text class="cls-9" transform="translate(1245.14 1557.93)">returning user</text><text class="cls-2" transform="translate(208.25 1530.91)">Profile Set Up</text><text class="cls-3" transform="translate(123.69 1593.46)">User creates profile based in <tspan x="0" y="43.2">provided questions.</tspan></text><text class="cls-4" transform="translate(125.99 1679.39)">User sights:</text><rect class="cls-6" x="305.88" y="1310.41" width="133.87" height="133.87" rx="38.35"/><text class="cls-3" transform="translate(126.71 1725.61)">Form with multiple questions<tspan x="0" y="43.2">about pet preferences.</tspan></text><text class="cls-4" transform="translate(127.79 1814.04)">User actions:</text><text class="cls-3" transform="translate(128.51 1860.26)">Choose checkbox list of<tspan x="0" y="43.2">preferences.</tspan><tspan x="0" y="86.4">Send adjustments.</tspan></text><line class="cls-6" x1="2243.95" y1="1741.45" x2="1443.14" y2="1741.45"/><text class="cls-2" transform="translate(2243.48 1894.34)">Pet Details</text><text class="cls-3" transform="translate(2070.92 1956.89)">User can see the pet in detail before<tspan x="0" y="43.2">liking / disliking.</tspan></text><text class="cls-4" transform="translate(2073.23 2052.82)">User sights:</text><rect class="cls-6" x="2303.11" y="1673.83" width="133.87" height="133.87" rx="38.35"/><text class="cls-3" transform="translate(2073.95 2099.03)">Pet Photo + 2 | Name |<tspan class="cls-5" x="363.9" y="0"> </tspan><tspan x="371.94" y="0">Age | Characteristics</tspan><tspan x="0" y="43.2">Health | Location</tspan></text><text class="cls-4" transform="translate(2073.59 2198.43)">User actions:</text><text class="cls-3" transform="translate(2074.31 2244.65)">Go Back | Like Pet</text><polyline class="cls-6" points="325.35 2010.57 325.35 2042.93 774.95 2042.93"/><polyline class="cls-6" points="1265.68 1733.8 774.95 1733.8 774.95 2042.93"/><rect class="cls-10" x="1485.39" y="2416.39" width="281.89" height="81.89" rx="38.35"/><text class="cls-3" transform="translate(1516.15 2467.31)">User likes pet</text><line class="cls-6" x1="1041.42" y1="2360.52" x2="1041.42" y2="2416.39"/><rect class="cls-11" x="886.02" y="2416.39" width="328.2" height="81.89" rx="38.35"/><text class="cls-3" transform="translate(916.78 2467.31)">User dislikes pet</text><line class="cls-6" x1="1626.34" y1="2360.52" x2="1626.34" y2="2416.39"/><polyline class="cls-6" points="1041.41 2554.09 1041.41 2572.91 1626.34 2572.91 1626.34 2554.09"/><polyline class="cls-6" points="1626.34 2369.93 1626.34 2351.1 1041.41 2351.1 1041.41 2369.93"/><line class="cls-6" x1="1333.88" y1="2304.56" x2="1333.88" y2="2351.1"/><line class="cls-6" x1="1333.88" y1="2572.91" x2="1333.88" y2="2619.45"/><text class="cls-2" transform="translate(1148.88 2862.86)">End Of Matches</text><text class="cls-3" transform="translate(1020.32 2925.42)">User has exhausted the matches and has<tspan x="0" y="43.2">no more cards to see.</tspan></text><text class="cls-4" transform="translate(1022.62 3011.34)">User sights:</text><rect class="cls-6" x="1272.5" y="2642.36" width="133.87" height="133.87" rx="38.35"/><text class="cls-3" transform="translate(1023.34 3057.56)">Empty state screen | Possibility to change<tspan x="0" y="43.2">preferences.</tspan></text><text class="cls-4" transform="translate(1024.56 3148.49)">User actions:</text><text class="cls-3" transform="translate(1025.29 3194.7)"><tspan class="cls-7">V</tspan><tspan x="23.38" y="0">iew Matched Pets</tspan><tspan x="0" y="43.2">See Notifications | Edit Profile</tspan></text><polyline class="cls-6" points="325.35 2042.93 325.35 2720.12 1250.12 2720.12"/><polygon class="cls-12" points="325.35 2046.84 310.92 2071.84 339.79 2071.84 325.35 2046.84"/><polygon class="cls-12" points="1266.79 1733.8 1241.79 1719.36 1241.79 1748.23 1266.79 1733.8"/><polygon class="cls-12" points="2263.99 1741.45 2238.99 1727.01 2238.99 1755.88 2263.99 1741.45"/><polygon class="cls-12" points="901.45 845.63 915.89 820.63 887.02 820.63 901.45 845.63"/><polygon class="cls-12" points="1804.62 845.63 1819.05 820.63 1790.18 820.63 1804.62 845.63"/><polygon class="cls-12" points="1819.05 1254.14 1833.49 1229.14 1804.62 1229.14 1819.05 1254.14"/><polygon class="cls-12" points="914.82 1245.81 929.25 1220.81 900.38 1220.81 914.82 1245.81"/><polygon class="cls-12" points="463.21 1377.34 488.21 1391.77 488.21 1362.91 463.21 1377.34"/><text class="cls-13" transform="translate(948.39 2530.84)">pet card dismissed</text><text class="cls-13" transform="translate(1459.13 2531.85)">pet card saved to matched pets</text><text class="cls-2" transform="translate(2199.85 2602.03)">Matched Pets</text><text class="cls-3" transform="translate(2064.29 2664.58)">User can see the liked pets and <tspan x="0" y="43.2">descriptions.</tspan></text><text class="cls-4" transform="translate(2066.59 2760.51)">User sights:</text><rect class="cls-6" x="2296.48" y="2381.53" width="133.87" height="133.87" rx="38.35"/><text class="cls-3" transform="translate(2067.32 2806.73)">Pet Photo | Name |<tspan class="cls-5" x="302.85" y="0"> </tspan><tspan x="310.89" y="0">Age | Brief Descrip.</tspan></text><text class="cls-4" transform="translate(2066.95 2856.12)">User actions:</text><text class="cls-3" transform="translate(2067.68 2902.34)">See More | Cancel Match | Order | Filter<tspan x="0" y="43.2">Search | Go to Profile | Go Back | Go to</tspan><tspan x="0" y="86.4">Matching Screen</tspan></text><line class="cls-6" x1="2263.99" y1="2457.34" x2="1784.61" y2="2457.34"/><line class="cls-6" x1="2370.04" y1="2351.1" x2="2370.04" y2="2281.5"/><polygon class="cls-12" points="2263.99 2457.34 2238.99 2442.9 2238.99 2471.77 2263.99 2457.34"/><polygon class="cls-12" points="2370.05 2352.07 2384.48 2327.07 2355.61 2327.07 2370.05 2352.07"/><polygon class="cls-12" points="325.35 2781.72 310.92 2806.72 339.79 2806.72 325.35 2781.72"/><polygon class="cls-12" points="2370.94 3022.07 2356.51 3047.07 2385.38 3047.07 2370.94 3022.07"/><rect class="cls-11" x="640.2" y="3420.07" width="328.2" height="81.89" rx="38.35"/><text class="cls-3" transform="translate(719.97 3470.99)">Edit Profile</text><rect class="cls-11" x="1683.6" y="3420.07" width="328.2" height="81.89" rx="38.35"/><text class="cls-3" transform="translate(1717.37 3470.99)"><tspan class="cls-7">V</tspan><tspan x="23.38" y="0">iew Liked Pets</tspan></text><line class="cls-6" x1="1333.88" y1="3290.22" x2="1333.88" y2="3461.02"/><polyline class="cls-6" points="2370.94 3047.07 2370.94 3470.99 2064.29 3470.99"/><polyline class="cls-6" points="325.35 2806.72 325.35 3461.02 582.33 3461.02"/><polyline class="cls-6" points="1000.82 3461.02 1333.88 3461.02 1629.12 3461.02"/></g></g></svg>