<svg xmlns="http://www.w3.org/2000/svg" viewBox="0 0 1417.32 796.51"><defs><style>.cls-1,.cls-17,.cls-33,.cls-4,.cls-9{fill:#f1f1f2;}.cls-2{fill:#d58725;}.cls-3,.cls-30{fill:#523f80;}.cls-4{font-size:67.27px;}.cls-30,.cls-33,.cls-4{font-family:Baloo;}.cls-5{letter-spacing:-0.01em;}.cls-6{letter-spacing:0em;}.cls-7{letter-spacing:-0.01em;}.cls-8{letter-spacing:0em;}.cls-9{font-size:22.23px;}.cls-17,.cls-25,.cls-9{font-family:ArialRoundedMTBold, Arial Rounded MT Bold;}.cls-14,.cls-9{letter-spacing:0.04em;}.cls-10{letter-spacing:0.05em;}.cls-11{letter-spacing:0.05em;}.cls-12{letter-spacing:0.03em;}.cls-13{letter-spacing:0.16em;}.cls-15{letter-spacing:0.03em;}.cls-16{letter-spacing:-0.03em;}.cls-17{font-size:24px;}.cls-18{letter-spacing:-0.05em;}.cls-19{letter-spacing:-0.05em;}.cls-20{letter-spacing:-0.02em;}.cls-21{fill:#e3b153;}.cls-22{fill:#c46846;}.cls-23{fill:#7c6ba5;}.cls-24{fill:#c58610;}.cls-25{font-size:13.05px;fill:#585858;}.cls-26{letter-spacing:-0.05em;}.cls-27{letter-spacing:0em;}.cls-28{letter-spacing:-0.05em;}.cls-29{letter-spacing:-0.02em;}.cls-30,.cls-33{font-size:33.97px;}.cls-31{letter-spacing:-0.02em;}.cls-32{letter-spacing:0.02em;}.cls-34{letter-spacing:0em;}.cls-35{letter-spacing:0em;}.cls-36{letter-spacing:0em;}.cls-37{letter-spacing:0.02em;}</style></defs><g id="Capa_2" data-name="Capa 2"><g id="Capa_1-2" data-name="Capa 1"><rect class="cls-1" width="1417.32" height="796.51"/><rect class="cls-2" width="708.66" height="796.51"/><rect class="cls-3" x="708.66" width="708.66" height="398.26"/><text class="cls-4" transform="translate(188.02 240.94)"><tspan class="cls-5">C</tspan><tspan x="37.54" y="0">olor</tspan><tspan class="cls-6" x="0" y="60">s</tspan><tspan x="32.76" y="60">wa</tspan><tspan class="cls-7" x="122.56" y="60">t</tspan><tspan x="149.07" y="60">che</tspan><tspan class="cls-8" x="258.25" y="60">s</tspan><tspan x="291.68" y="60">.</tspan></text><text class="cls-9" transform="translate(188.03 374.05)">T<tspan class="cls-10" x="14.71" y="0" xml:space="preserve">he color palette  </tspan><tspan x="214.7" y="0">w</tspan><tspan class="cls-11" x="233.59" y="0">as</tspan><tspan class="cls-10"><tspan x="0" y="26.68">delic</tspan><tspan class="cls-12" x="57.92" y="26.68">a</tspan><tspan x="71.69" y="26.68">tly </tspan><tspan class="cls-12" x="107.64" y="26.68">c</tspan><tspan x="121.4" y="26.68">hosen to accentu</tspan><tspan class="cls-12" x="324.71" y="26.68">a</tspan><tspan class="cls-11" x="338.48" y="26.68">te</tspan></tspan><tspan x="0" y="53.35">f</tspan><tspan class="cls-11" x="8.22" y="53.35">eelings o</tspan><tspan class="cls-13" x="115.05" y="53.35">f</tspan><tspan class="cls-11" x="126.05" y="53.35" xml:space="preserve"> emp</tspan><tspan class="cls-12" x="182.83" y="53.35">a</tspan><tspan class="cls-10" x="196.59" y="53.35">thy and</tspan><tspan class="cls-11"><tspan x="0" y="80.03">com</tspan><tspan class="cls-14" x="49.64" y="80.03">m</tspan><tspan x="70.13" y="80.03">unic</tspan><tspan class="cls-12" x="120.66" y="80.03">a</tspan><tspan class="cls-10" x="134.43" y="80.03">te them in a </tspan></tspan><tspan class="cls-10"><tspan x="0" y="106.71">fun and ene</tspan><tspan class="cls-15" x="137.98" y="106.71">rg</tspan><tspan class="cls-11" x="162.73" y="106.71">etic </tspan><tspan class="cls-14" x="214.16" y="106.71">wa</tspan><tspan class="cls-16" x="247.08" y="106.71">y</tspan><tspan class="cls-11" x="258.56" y="106.71">, </tspan></tspan><tspan class="cls-11"><tspan x="0" y="133.38">sti</tspan><tspan class="cls-14" x="29.28" y="133.38">m</tspan><tspan class="cls-10" x="49.76" y="133.38">ul</tspan><tspan class="cls-12" x="71.44" y="133.38">a</tspan><tspan class="cls-10" x="85.21" y="133.38">ting c</tspan><tspan class="cls-12" x="151.86" y="133.38">r</tspan><tspan x="162.15" y="133.38">e</tspan><tspan class="cls-12" x="176.48" y="133.38">a</tspan><tspan class="cls-10" x="190.24" y="133.38">tivity and</tspan><tspan x="0" y="160.06">im</tspan><tspan class="cls-14" x="27.92" y="160.06">a</tspan><tspan class="cls-10" x="41.94" y="160.06">gin</tspan><tspan class="cls-12" x="78.63" y="160.06">a</tspan><tspan x="92.39" y="160.06">tion.</tspan></tspan></text><text class="cls-17" transform="translate(72.89 638.68)">CO<tspan class="cls-18" x="36.77" y="0">L</tspan><tspan x="50.07" y="0">OR </tspan><tspan class="cls-19" x="92.34" y="0">V</tspan><tspan x="107.64" y="0">A</tspan><tspan class="cls-18" x="124.9" y="0">L</tspan><tspan x="138.2" y="0">UES:</tspan><tspan class="cls-20" x="0" y="28.8">r</tspan><tspan x="9.91" y="28.8">gb(214,136,37)</tspan><tspan x="0" y="57.6">hsl(33.6,70.5%,49.2%)</tspan><tspan x="0" y="86.4">cmyk(0,36,83,16)</tspan></text><text class="cls-17" transform="translate(1162.12 224.55)">CO<tspan class="cls-18" x="36.77" y="0">L</tspan><tspan x="50.07" y="0">OR </tspan><tspan class="cls-19" x="92.34" y="0">V</tspan><tspan x="107.64" y="0">A</tspan><tspan class="cls-18" x="124.9" y="0">L</tspan><tspan x="138.2" y="0">UES:</tspan><tspan class="cls-20" x="24.2" y="28.8">r</tspan><tspan x="34.11" y="28.8">gb(82,64,129)</tspan><tspan x="-76.21" y="57.6">hsl(256.6,33.7%,37.8%)</tspan><tspan x="-5.66" y="86.4">cmyk(36,50,0,49)</tspan></text><circle class="cls-21" cx="1018.35" cy="607.81" r="34.38"/><circle class="cls-22" cx="1074.74" cy="541.24" r="34.38"/><circle class="cls-23" cx="1134.88" cy="607.81" r="34.38"/><circle class="cls-24" cx="1074.74" cy="678.81" r="34.38"/><text class="cls-25" transform="translate(839.38 589.37)">CO<tspan class="cls-26" x="20" y="0">L</tspan><tspan class="cls-27" x="27.23" y="0">OR </tspan><tspan class="cls-28" x="50.22" y="0">V</tspan><tspan x="58.53" y="0">A</tspan><tspan class="cls-26" x="67.92" y="0">L</tspan><tspan class="cls-27" x="75.15" y="0">UES:</tspan><tspan class="cls-29"><tspan x="5.4" y="15.66">r</tspan><tspan class="cls-27" x="10.79" y="15.66">gb(228,178,84)</tspan></tspan><tspan x="-33.69" y="31.32">hsl(39.2,72.7%,61.2%)</tspan><tspan x="-3.08" y="46.98">cmyk(0,22,63,11)</tspan></text><text class="cls-25" transform="translate(1205.95 588.61)">CO<tspan class="cls-26" x="20" y="0">L</tspan><tspan x="27.23" y="0">OR </tspan><tspan class="cls-28" x="50.22" y="0">V</tspan><tspan x="58.53" y="0">A</tspan><tspan class="cls-26" x="67.92" y="0">L</tspan><tspan class="cls-27" x="75.15" y="0">UES:</tspan><tspan class="cls-29"><tspan x="0" y="15.66">r</tspan><tspan class="cls-27" x="5.39" y="15.66">gb(124,107,166)</tspan></tspan><tspan x="0" y="31.32">hsl(257.3,24.9%,53.5%)</tspan><tspan x="0" y="46.98">cmyk(25,36,0,35)</tspan></text><text class="cls-25" transform="translate(1148.87 478.06)">CO<tspan class="cls-26" x="20" y="0">L</tspan><tspan x="27.23" y="0">OR </tspan><tspan class="cls-28" x="50.22" y="0">V</tspan><tspan x="58.53" y="0">A</tspan><tspan class="cls-26" x="67.92" y="0">L</tspan><tspan class="cls-27" x="75.15" y="0">UES:</tspan><tspan class="cls-29"><tspan x="0" y="15.66">r</tspan><tspan class="cls-27" x="5.39" y="15.66">gb(198,105,71)</tspan></tspan><tspan x="0" y="31.32">hsl(16.1,52.7%,52.7%)</tspan><tspan x="0" y="46.98">cmyk(0,47,64,22)</tspan></text><text class="cls-25" transform="translate(902.09 697.81)">CO<tspan class="cls-26" x="20" y="0">L</tspan><tspan class="cls-27" x="27.23" y="0">OR </tspan><tspan class="cls-28" x="50.22" y="0">V</tspan><tspan x="58.53" y="0">A</tspan><tspan class="cls-26" x="67.92" y="0">L</tspan><tspan class="cls-27" x="75.15" y="0">UES:</tspan><tspan class="cls-29"><tspan x="5.4" y="15.66">r</tspan><tspan class="cls-27" x="10.79" y="15.66">gb(197,135,19)</tspan></tspan><tspan x="-33.69" y="31.32">hsl(39.1,82.4%,42.4%)</tspan><tspan x="-3.08" y="46.98">cmyk(0,31,90,23)</tspan></text><text class="cls-30" transform="translate(759.53 464.57)">#<tspan class="cls-31" x="24.25" y="0">c</tspan><tspan x="40.35" y="0">omplementa</tspan><tspan class="cls-32" x="236.27" y="0">r</tspan><tspan x="250.78" y="0">y</tspan></text><text class="cls-33" transform="translate(1163.31 182.44)">#<tspan class="cls-34" x="24.25" y="0">s</tspan><tspan class="cls-35" x="41.13" y="0">e</tspan><tspan class="cls-31" x="59.78" y="0">c</tspan><tspan class="cls-36" x="75.88" y="0">onda</tspan><tspan class="cls-37" x="153.97" y="0">r</tspan><tspan x="168.48" y="0">y</tspan></text><text class="cls-33" transform="translate(74.52 597.35)">#prima<tspan class="cls-37" x="114.88" y="0">r</tspan><tspan x="129.38" y="0">y</tspan></text></g></g></svg>