<svg xmlns="http://www.w3.org/2000/svg" viewBox="0 0 1417.32 797.02"><defs><style>.cls-1,.cls-5{fill:#f1f1f2;}.cls-2,.cls-8{fill:#d58725;}.cls-11,.cls-3{fill:#523f80;}.cls-4,.cls-6,.cls-7{fill:none;stroke-miterlimit:10;}.cls-4,.cls-6{stroke:#f1f1f2;}.cls-4{stroke-width:5px;}.cls-5{font-size:77.58px;}.cls-11,.cls-5,.cls-8{font-family:Baloo;}.cls-6,.cls-7{stroke-width:4px;}.cls-7{stroke:#523f80;}.cls-11,.cls-8{font-size:47.8px;}.cls-9{letter-spacing:-0.01em;}.cls-10{letter-spacing:0em;}.cls-12{letter-spacing:-0.01em;}.cls-13{letter-spacing:0em;}</style></defs><g id="Capa_2" data-name="Capa 2"><g id="Capa_1-2" data-name="Capa 1"><rect class="cls-1" width="1417.32" height="796.51"/><rect class="cls-2" y="0.81" width="708.66" height="398.26"/><rect class="cls-2" x="1062.99" y="398.76" width="354.33" height="398.26"/><rect class="cls-3" x="708.66" y="398" width="354.33" height="398.26"/><path class="cls-4" d="M314.78,241.16c26.38,26.09,20.35,62-18.92,41.07-42.31-22.51-59,32.63-83.89,32.47-29.63-.18-26.72-29.85-21.78-69.45,7.44-59.68-30.8-90-53.63-69.05-28.91,26.58,27.41,73.64,57.69,28.58,24.46-36.39,4.76-90.16-23.09-92.1-35.41-2.46,12.39,81,50.61,70.38,27.76-7.74,57.9-89.72,25.82-97.09-36.53-8.39-37.14,51.12-9.33,74.8,27.14,23.12,70.81,13.88,69.89-21.9-.79-30.53-41-18.29-36.56,33"/><text class="cls-5" transform="translate(259.17 225.53)">monkiki</text><path class="cls-6" d="M934.85,639.28c15.19,15,11.72,35.7-10.9,23.66-24.38-13-34,18.8-48.33,18.71-17.07-.11-15.39-17.2-12.55-40,4.29-34.38-17.74-51.86-30.89-39.78-16.66,15.31,15.79,42.42,33.23,16.47,14.09-21,2.75-51.94-13.3-53.06-20.4-1.42,7.14,46.69,29.16,40.54,16-4.46,33.35-51.68,14.87-55.93-21-4.83-21.39,29.45-5.38,43.09,15.64,13.32,40.8,8,40.27-12.61-.46-17.59-23.62-10.54-21.07,19"/><path class="cls-7" d="M1304.66,636.54c15.19,15,11.72,35.7-10.9,23.66-24.38-13-34,18.8-48.33,18.71-17.07-.11-15.39-17.2-12.55-40,4.29-34.38-17.74-51.86-30.89-39.78-16.66,15.31,15.79,42.42,33.24,16.47,14.08-21,2.74-51.94-13.3-53.06-20.41-1.42,7.13,46.69,29.15,40.54,16-4.46,33.35-51.68,14.87-55.93-21-4.83-21.39,29.45-5.37,43.09,15.63,13.32,40.79,8,40.26-12.61-.46-17.59-23.62-10.54-21.06,19"/><text class="cls-8" transform="translate(188.79 590.21)"><tspan class="cls-9">C</tspan><tspan x="26.67" y="0">onnecting</tspan><tspan x="0" y="42.63">all the </tspan><tspan x="0" y="85.26">animal l</tspan><tspan class="cls-9" x="170.11" y="85.26">o</tspan><tspan class="cls-10" x="197.5" y="85.26">v</tspan><tspan x="223.31" y="85.26">ers :)</tspan></text><text class="cls-11" transform="translate(886.57 208.79)"><tspan class="cls-12">P<tspan class="cls-13" x="27.05" y="0">et adoption </tspan></tspan><tspan x="0" y="42.63">in one click :)</tspan></text><rect class="cls-3" x="888.05" y="148.97" width="110.64" height="3.83"/><rect class="cls-2" x="191.42" y="529.17" width="110.64" height="3.83"/></g></g></svg>