<svg xmlns="http://www.w3.org/2000/svg" xmlns:xlink="http://www.w3.org/1999/xlink" viewBox="0 0 107.18 147.45"><defs><style>.cls-1,.cls-15{fill:none;}.cls-2{isolation:isolate;}.cls-3{clip-path:url(#clip-path);}.cls-4{fill:#eab858;}.cls-5{fill:#3e485b;}.cls-6{fill:#efd2d4;}.cls-7{fill:#bf8026;}.cls-8{fill:#df992e;}.cls-9{fill:#dca043;}.cls-10{fill:#c38024;}.cls-11{fill:#e0a4aa;}.cls-12{fill:#262424;mix-blend-mode:overlay;}.cls-13{fill:#de9882;}.cls-14{fill:#3d281a;}.cls-15{stroke:#3e485b;stroke-miterlimit:10;}.cls-16{fill:#da8c6d;}.cls-17{fill:#d16848;}.cls-18{fill:#c48470;}</style><clipPath id="clip-path" transform="translate(0 0)"><circle class="cls-1" cx="53.59" cy="53.59" r="53.59"/></clipPath></defs><g class="cls-2"><g id="Capa_2" data-name="Capa 2"><g id="Capa_1-2" data-name="Capa 1"><g class="cls-3"><circle class="cls-4" cx="53.59" cy="53.59" r="53.59"/><path class="cls-5" d="M60.31,29.24s-3.85-5.33-13.92-3S27.15,45.82,28.33,60.33s-2.66,6.81-7.4,7.4-5.63,6.81-.59,13,35.53,5.33,35.53,5.33S73.93,87,76.6,80.76s-4.74-3-6.81-4.15,5.33,2.08,9.17-8.88S84.89,29.53,60.31,29.24Z" transform="translate(0 0)"/><path class="cls-6" d="M64.16,84s3.26,25.17,5.92,29.61S81.59,130.51,81.48,134s1,6.77.22,8.21-1.44.34-1.44.34-.44,4.33-2.55,4.88-3.89-2.44-3.78-4.66a44.58,44.58,0,0,1,1-6S57.72,120.29,55.5,116.07s-3.11-12.88-3.11-12.88Z" transform="translate(0 0)"/><path class="cls-7" d="M71.56,106.37c-.44,0-15.25,7.55-15.25,7.55S54.39,91,57.05,86.83,63,83,63,83Z" transform="translate(0 0)"/><path class="cls-8" d="M45.21,71.58c-1.19.3-10.36.3-17.77,8.59S12.34,116.29,16.78,127l39.68-1.77s11.25-33.76,9.77-40.27S45.21,71.58,45.21,71.58Z" transform="translate(0 0)"/><path class="cls-6" d="M18.56,104.74c0,.89-6.22,10.07-3.55,16.59s29.61,4.73,29.61,4.73,16.28-3.85,13-6.81-13,2.37-13,2.37l-16-8.29,2.07-7.11Z" transform="translate(0 0)"/><path class="cls-9" d="M34.4,78.54s9.18,8.59,6.81,16.58-9.77,19.54-9.77,19.54l-17.17-6.51S23.45,75,34.4,78.54Z" transform="translate(0 0)"/><path class="cls-10" d="M34.4,78.54a5.69,5.69,0,0,0-4.61.57c1.69,2.58,3.27,6.61,3,12.61-.44,9.23-8.92,15.79-13.1,18.48l11.77,4.46s7.4-11.54,9.77-19.54S34.4,78.54,34.4,78.54Z" transform="translate(0 0)"/><path class="cls-11" d="M61.79,77.5c-.89.3-5.92,10.07-5.92,10.07S45.21,85.2,44.62,80.46a10.81,10.81,0,0,1,1.77-7.7Z" transform="translate(0 0)"/><path class="cls-6" d="M41.06,62.11S36.62,72.47,50,79.28s24.57-6.81,24.87-16c0,0-.89-7.7-.3-11S65.94,40.49,61.2,41.67s-5.33,1.78-6.22,7.7-7.7,1.78-10.66,4.15S45.21,59.74,41.06,62.11Z" transform="translate(0 0)"/><path class="cls-12" d="M74.52,52.33c.23-1.25-1-3.28-2.83-5.25-1.09,4.52-2.13,10.59-1.31,15.17C71.53,68.72,66.46,77.5,58.77,81c9.13-1,15.82-10.65,16-17.7C74.82,63.29,73.93,55.59,74.52,52.33Z" transform="translate(0 0)"/><ellipse class="cls-13" cx="53.4" cy="64.75" rx="1.38" ry="3.64" transform="translate(-28.32 83.87) rotate(-63.65)"/><path class="cls-13" d="M65.94,69.72c-.28.7,1,1.88,2.87,2.63.27.11.54.2.8.28.4-.79.77-1.6,1.13-2.42a8.56,8.56,0,0,0-.91-.42C68,69,66.23,69,65.94,69.72Z" transform="translate(0 0)"/><ellipse class="cls-14" cx="57.18" cy="61.38" rx="1.32" ry="0.88" transform="translate(-23.2 85.38) rotate(-63.65)"/><ellipse class="cls-14" cx="68.81" cy="65.9" rx="1.32" ry="0.88" transform="translate(-20.78 98.32) rotate(-63.65)"/><path class="cls-15" d="M71.88,64a3.07,3.07,0,0,0-4.06-1.48" transform="translate(0 0)"/><path class="cls-15" d="M60.26,60a2.92,2.92,0,0,0-4.06-1.48" transform="translate(0 0)"/><path class="cls-16" d="M65.08,63.53s.27,7.21-.63,7.36a6.76,6.76,0,0,1-2.38-.31s1.76.37,2-1.11Z" transform="translate(0 0)"/><path class="cls-17" d="M56.68,72.51A2.23,2.23,0,0,0,58.11,75a3.42,3.42,0,0,0,2.29.24,3.16,3.16,0,0,0,1.33-.71.3.3,0,0,0,0-.49l-4.32-2.64a.3.3,0,0,0-.45.15A4.15,4.15,0,0,0,56.68,72.51Z" transform="translate(0 0)"/><path class="cls-18" d="M56.68,72.51A2.23,2.23,0,0,0,58.11,75a3.42,3.42,0,0,0,2.29.24,3.57,3.57,0,0,0-2-2.31A4.2,4.2,0,0,0,56.68,72.51Z" transform="translate(0 0)"/></g></g></g></g></svg>