<svg xmlns="http://www.w3.org/2000/svg" xmlns:xlink="http://www.w3.org/1999/xlink" viewBox="0 0 109.92 146.44"><defs><style>.cls-1,.cls-17{fill:none;}.cls-2{isolation:isolate;}.cls-3{clip-path:url(#clip-path);}.cls-4{fill:#eab858;}.cls-5{fill:#e0a2a9;}.cls-6{fill:#2d2c5d;}.cls-7{fill:#313377;}.cls-8{fill:#8c5f39;}.cls-9{fill:#efd2d4;}.cls-10{opacity:0.56;}.cls-10,.cls-12,.cls-14{mix-blend-mode:overlay;}.cls-11,.cls-12,.cls-14{fill:#262424;}.cls-13{fill:#3d3d82;}.cls-14{opacity:0.33;}.cls-15{fill:#dead9f;}.cls-16{fill:#3d281a;}.cls-17{stroke:#8c5f39;stroke-miterlimit:10;}.cls-18{fill:#da8c6d;}.cls-19{fill:#d16848;}.cls-20{fill:#c48470;}</style><clipPath id="clip-path" transform="translate(2.73)"><circle class="cls-1" cx="53.59" cy="53.59" r="53.59"/></clipPath></defs><g class="cls-2"><g id="Capa_2" data-name="Capa 2"><g id="Capa_1-2" data-name="Capa 1"><g class="cls-3"><circle class="cls-4" cx="56.32" cy="53.59" r="53.59"/><path class="cls-5" d="M61.31,96.57l-8.92,11.07-36.76-4S4.13,96.46,6,101.93a20,20,0,0,1-4.89-3.21c-2.89-2.41-5.19,0-2.84,4.67s15.05,6.1,15.05,6.1,39.35,14.24,48.07,11.29,10.46-12.91,10.46-12.91Z" transform="translate(2.73)"/><path class="cls-6" d="M70.31,74s5.2-9.17,15.29-1.22,32.72,46.17,12.84,73.69L63.59,133.29c-1.16-18.77-6.71-43.51.61-50.76Z" transform="translate(2.73)"/><path class="cls-7" d="M65,77,53.59,102.59l18.14,10.92L83.79,84C87,75.5,68.19,68.52,65,77Z" transform="translate(2.73)"/><path class="cls-5" d="M58.69,79.78l10.4,4.28c5.63-1.46,8.58-5.16,8.25-11.62L64.81,65.71Z" transform="translate(2.73)"/><path class="cls-8" d="M26.89,61.43S21.08,67.55,15,64.18l3.67-5.8-6.12.3s4.89-13.15,12.54-15l-4.59-2.14s24.16-12.23,31.5-7c0,0,2.44-4.29,6.11-2.45S83.77,57.46,67.25,66,38.51,55.93,38.51,55.93Z" transform="translate(2.73)"/><path class="cls-9" d="M26,59.6S27.2,75.8,36.07,86.2s29.66-2.75,31.49-16.82a13.81,13.81,0,0,0-2.14-10.09s7.34-4.89-.31-10.09-8,4.89-8,4.89l2.45,6.12-2.75,1.53a11.18,11.18,0,0,1-11.32-2.45c-5.5-4.89-5.19-7.64-5.19-7.64Z" transform="translate(2.73)"/><g class="cls-10"><path class="cls-11" d="M68.46,53.33c-.29-1.29-1.24-2.69-3.35-4.13-2.7-1.84-4.48-1.75-5.65-.88Z" transform="translate(2.73)"/><path class="cls-11" d="M40,83.45c-4.57-4.1-8-19.31-9.44-26.41L26,59.6S27.2,75.8,36.07,86.2c5.34,6.27,15,4,22.26-2C52,85.64,43.6,86.64,40,83.45Z" transform="translate(2.73)"/></g><path class="cls-9" d="M73.68,100.57l-6.12,12.84L30.87,118s-12.85-4.28-9.79.61a19.84,19.84,0,0,1-5.5-2c-3.36-1.68-5.05,1.23-1.68,5.2s16,2.45,16,2.45,41.59,4.74,49.38-.15,7.19-15,7.19-15Z" transform="translate(2.73)"/><path class="cls-12" d="M86.52,109.13l-4-2.67c-1.28,4.15-4.29,10.62-10.51,13.38-8.14,3.6-47.39,4.87-58.75,1.07a8.29,8.29,0,0,0,.66.91c3.36,4,16,2.45,16,2.45s41.59,4.74,49.38-.15S86.52,109.13,86.52,109.13Z" transform="translate(2.73)"/><path class="cls-13" d="M72.76,80.7l-5.2,27.52,20.18,6.42,4.89-31.5C93.74,74.14,73.87,71.69,72.76,80.7Z" transform="translate(2.73)"/><path class="cls-14" d="M82.32,75.09a11.93,11.93,0,0,1,3.43,4.54c2.58,5.38-4.37,22.83-8,31.82l10,3.19,4.89-31.5C93.23,78.27,87.7,75.35,82.32,75.09Z" transform="translate(2.73)"/><ellipse class="cls-15" cx="47.08" cy="70.45" rx="3.64" ry="1.38" transform="translate(-23.64 28.21) rotate(-26.35)"/><path class="cls-15" d="M34.54,75.41c.28.71-1,1.89-2.87,2.64-.27.11-.54.2-.79.28-.41-.8-.78-1.6-1.14-2.42a9.59,9.59,0,0,1,.91-.42C32.51,74.74,34.25,74.71,34.54,75.41Z" transform="translate(2.73)"/><ellipse class="cls-16" cx="43.3" cy="67.08" rx="0.88" ry="1.32" transform="translate(-22.54 26.18) rotate(-26.35)"/><ellipse class="cls-16" cx="31.67" cy="71.6" rx="0.88" ry="1.32" transform="translate(-25.75 21.49) rotate(-26.35)"/><path class="cls-17" d="M28.6,69.73a3.07,3.07,0,0,1,4.06-1.47" transform="translate(2.73)"/><path class="cls-17" d="M40.22,65.71a2.91,2.91,0,0,1,4.06-1.48" transform="translate(2.73)"/><path class="cls-18" d="M35.4,69.23s-.27,7.21.63,7.36a6.76,6.76,0,0,0,2.38-.31s-1.76.37-2-1.11Z" transform="translate(2.73)"/><path class="cls-19" d="M43.8,78.21a2.23,2.23,0,0,1-1.43,2.52,3.48,3.48,0,0,1-2.29.24,3.27,3.27,0,0,1-1.33-.71.3.3,0,0,1,0-.49l4.32-2.65a.31.31,0,0,1,.45.15A4.4,4.4,0,0,1,43.8,78.21Z" transform="translate(2.73)"/><path class="cls-20" d="M43.8,78.21a2.23,2.23,0,0,1-1.43,2.52,3.48,3.48,0,0,1-2.29.24,3.52,3.52,0,0,1,2-2.31A4.16,4.16,0,0,1,43.8,78.21Z" transform="translate(2.73)"/></g></g></g></g></svg>