<svg xmlns="http://www.w3.org/2000/svg" viewBox="0 0 617.6 344.44"><defs><style>.cls-1,.cls-2{fill:#e29213;}.cls-2{font-size:114.39px;font-family:Baloo;}</style></defs><g id="Capa_2" data-name="Capa 2"><g id="Capa_1-2" data-name="Capa 1"><path class="cls-1" d="M126.19,344.44H126c-13-.08-22.42-3.74-29-11.21-15.67-17.86-11-55.12-6.1-94.56a158.43,158.43,0,0,0-.26-43.73c-16.68,15.47-34.32,16-44.5,14.46-20.57-3-38.86-17.91-44.47-36.16-4.33-14.09-.39-27.66,11.1-38.22,12.77-11.74,29.08-13.84,44.73-5.78s29.82,26.2,36.62,53c1.12-1.44,2.2-2.94,3.26-4.51a91.59,91.59,0,0,0,13.06-30.1c-13.83-5.58-28-16.7-40.88-32.6C52.38,93.78,39,64.41,46.87,49.35c2.31-4.45,7.52-9.58,19.2-8.77,16.68,1.16,32.12,13.83,42.35,34.76,9,18.37,13.54,43.53,9,68.39,7.8,2.36,15.34,2.66,22.28.72,8.87-2.47,18.72-11.08,27.86-24-1.6-1.18-3.17-2.41-4.69-3.71-13.23-11.27-23-28.29-27.49-47.94-4.28-18.75-3-36.93,3.5-49.88C146.68,3.36,161-2.92,179.22,1.26c14.17,3.26,22.23,16,22.69,35.76.56,24.24-10.37,57.48-26,81.85A75.41,75.41,0,0,0,210.85,130c-1.33-16.94.45-32,5.29-44.81C220.38,74,227,65,234.83,59.73c8-5.37,16.61-6.39,23.56-2.79,7.71,4,12.13,12.93,12.45,25.17.56,21.65-9.78,39.16-28.35,48-20.87,10-48.2,7.19-69.93-6.3-9.44,13.37-20.31,23.33-31.27,26.39-7.89,2.21-16.4,1.92-25.13-.65A97.42,97.42,0,0,1,102.4,181a84.94,84.94,0,0,1-6.59,8.6c2.76,14.47,3.4,31.14,1.08,49.77-5.41,43.34-8.24,75.16,4.66,89.86,5.36,6.11,13.37,9.11,24.5,9.17h.13c12.73,0,24.64-11.47,37.26-23.62C174.52,304.14,186,293.11,200,287.06c16.31-7,33-5.76,51.11,3.86,20.66,11,36.51,11.87,43.48,2.4,10.33-14.05-1.87-41.13-19.1-58.18l4.22-4.26c22.16,21.91,30.82,50.9,19.71,66-8.92,12.12-27.56,11.88-51.13-.66-36.66-19.51-59.06,2.06-80.72,22.92C154.09,332.15,141.32,344.44,126.19,344.44Zm-87.43-214c-7.87,0-15.42,3-21.89,9-9.69,8.91-13,20.28-9.42,32,4.88,15.87,21.53,29.32,39.61,32,15.65,2.32,30.33-3.21,42.3-15.69-5.85-27.17-19.59-45.48-34.57-53.19A34.89,34.89,0,0,0,38.76,130.47Zm24.91-84c-5.68,0-9.54,1.88-11.48,5.61C46.52,63,56.22,89,74.26,111.21c12,14.74,24.92,25.13,37.44,30.44,4-23.16-.29-46.54-8.67-63.68C93.77,59,80.14,47.57,65.66,46.57,65,46.52,64.31,46.5,63.67,46.5ZM249.55,60.83a20.81,20.81,0,0,0-11.38,3.89c-12.25,8.2-24.25,29.67-21.29,65.39a57.51,57.51,0,0,0,23-5.39c16.59-7.92,25.44-23,24.94-42.45-.26-10-3.53-17.06-9.21-20A13.1,13.1,0,0,0,249.55,60.83ZM168.69,6C155.21,6,148,14.09,144.22,21.63c-11.62,23.12-4.31,67.71,22.52,90.56q2,1.73,4.16,3.3c2.51-3.92,4.95-8.16,7.28-12.68,11.37-22,18.16-47.19,17.73-65.65-.5-21.53-10.08-28.22-18-30A40.9,40.9,0,0,0,168.69,6Z"/><text class="cls-2" transform="translate(195.63 209.96)">monkiki</text></g></g></svg>